<svg width="20" height="21" viewBox="0 0 20 21" fill="none" xmlns="http://www.w3.org/2000/svg">
<path fill-rule="evenodd" clip-rule="evenodd" d="M19.0113 11.3956C19.538 11.5617 19.8303 12.1233 19.6643 12.65L19.415 13.4405L19.0812 14.2466L18.6783 15.0204L18.2095 15.7563L17.6784 16.4485L17.089 17.0917L16.4457 17.6811L15.7535 18.2123L15.0177 18.681L14.2825 19.0637C13.7927 19.3188 13.1888 19.1284 12.9338 18.6385C12.6788 18.1486 12.8692 17.5447 13.359 17.2897L14.0167 16.9473L14.6053 16.5724L15.1589 16.1476L15.6734 15.6761L16.1448 15.1617L16.5697 14.608L16.9446 14.0195L17.2668 13.4005L17.5339 12.7558L17.7568 12.0486C17.9229 11.5219 18.4845 11.2295 19.0113 11.3956Z" fill="#007AFF"/>
<path fill-rule="evenodd" clip-rule="evenodd" d="M19.0966 9.43368C18.5574 9.55321 18.0234 9.21301 17.9039 8.67382L17.7434 7.94991L17.5336 7.28438L17.2665 6.63967L16.9443 6.02069L16.5694 5.43215L16.1445 4.87853L15.6731 4.36404L15.1586 3.89259L14.605 3.46778L14.0164 3.09284L13.3975 2.77062L12.7528 2.50357L12.0872 2.29373L11.4059 2.14269L10.7141 2.05161L10.0169 2.02117L9.31976 2.05161L8.62791 2.14269L7.94662 2.29373L7.28109 2.50357L6.63638 2.77062L6.0174 3.09283L5.42886 3.46778L4.87523 3.89259L4.36074 4.36403L3.8893 4.87853L3.46449 5.43215L3.08955 6.02069L2.76732 6.63967L2.50028 7.28437L2.29044 7.94992L2.1394 8.6312L2.04832 9.32305L2.01788 10.0202L2.04831 10.7174L2.1394 11.4092L2.29044 12.0905L2.50028 12.756L2.76732 13.4008L3.08955 14.0197L3.46449 14.6083L3.8893 15.1619L4.36075 15.6764L4.87524 16.1478L5.42885 16.5726L6.01741 16.9476L6.63638 17.2698L7.28107 17.5369L7.94662 17.7467L8.6279 17.8977L9.31975 17.9888L10.0605 18.0212C10.6123 18.0453 11.0401 18.5121 11.016 19.0638C10.9919 19.6156 10.5251 20.0434 9.9733 20.0193L9.14528 19.9831L8.28028 19.8692L7.42849 19.6804L6.5964 19.418L5.79034 19.0842L5.01645 18.6813L4.28061 18.2125L3.58844 17.6814L2.94518 17.092L2.35575 16.4487L1.82462 15.7565L1.35584 15.0207L0.952983 14.2468L0.619104 13.4407L0.356747 12.6087L0.167908 11.7569L0.0540273 10.8919L0.0159709 10.0202L0.0540295 9.14857L0.167909 8.28357L0.356747 7.43178L0.619102 6.59969L0.952982 5.79363L1.35584 5.01974L1.82462 4.2839L2.35575 3.59173L2.94518 2.94847L3.58843 2.35904L4.28061 1.82791L5.01645 1.35914L5.79034 0.956275L6.5964 0.622394L7.42849 0.360038L8.28028 0.1712L9.14528 0.0573195L10.0169 0.0192628L10.8886 0.0573193L11.7536 0.1712L12.6054 0.360037L13.4374 0.622394L14.2435 0.956274L15.0174 1.35914L15.7532 1.82791L16.4454 2.35904L17.0887 2.94847L17.6781 3.59173L18.2092 4.2839L18.678 5.01974L19.0809 5.79363L19.4147 6.59969L19.6771 7.43178L19.8565 8.24094C19.976 8.78014 19.6358 9.31414 19.0966 9.43368Z" fill="#9BCBFF"/>
</svg>
