<?xml version="1.0" encoding="UTF-8"?>
<svg id="Layer_1" xmlns="http://www.w3.org/2000/svg" version="1.1" viewBox="0 0 2000 646">
  <!-- Generator: Adobe Illustrator 29.3.1, SVG Export Plug-In . SVG Version: 2.1.0 Build 151)  -->
  <defs>
    <style>
      .st0 {
        fill: #141414;
      }

      .st1 {
        fill: #fff;
      }

      .st2 {
        fill: #e23359;
      }
    </style>
  </defs>
  <rect class="st0" x="-77" y="-104" width="2154" height="854"/>
  <g>
    <g>
      <path class="st2" d="M304.01,257.86l-44.02,7.07c-3-9.42-11.36-14.14-25.06-14.14-12.64,0-18.96,3.65-18.96,10.92,0,4.29,4.39,8.03,13.17,11.25l29.88,9.64c16.71,5.36,28.81,12.05,36.31,20.08,7.5,8.03,11.25,18.48,11.25,31.33,0,17.14-6.16,30.36-18.48,39.68-12.32,9.32-29.08,13.98-50.28,13.98s-37.65-4.34-49.96-13.01c-12.32-8.68-19.65-21.05-22.01-37.11l44.34-6.11c3.21,11.14,12.74,16.71,28.6,16.71,6.64,0,11.94-1.07,15.9-3.21,3.96-2.14,5.94-5.14,5.94-9,0-5.35-5.57-9.64-16.71-12.85l-30.52-9c-15.42-4.28-26.62-10.28-33.58-17.99-6.96-7.71-10.44-17.78-10.44-30.2,0-17.99,5.99-31.43,17.99-40.32,11.99-8.89,28.6-13.33,49.8-13.33,19.28,0,34.7,4.02,46.27,12.05,11.57,8.03,18.42,19.23,20.56,33.58Z"/>
      <path class="st2" d="M326.5,383.49v-240.98h48.2v90.93c11.78-14.14,27.42-21.21,46.91-21.21,17.99,0,33.31,6.11,45.95,18.31,12.42,12.21,18.64,27.42,18.64,45.63v107.32h-47.87v-94.46c0-9.21-3.05-16.87-9.16-22.97-6.1-6.1-13.66-9.16-22.65-9.16s-16.55,3.05-22.65,9.16c-6.11,6.11-9.16,13.77-9.16,22.97v94.46h-48.2Z"/>
      <path class="st2" d="M532.45,362.6c-16.92-16.92-25.38-37.8-25.38-62.65s8.46-45.63,25.38-62.33c16.92-16.92,38.24-25.38,63.94-25.38s46.69,8.46,63.62,25.38c17.13,16.71,25.7,37.49,25.7,62.33s-8.57,45.52-25.7,62.65c-17.14,16.71-38.35,25.06-63.62,25.06s-47.02-8.35-63.94-25.06ZM596.39,340.11c11.14,0,20.35-3.86,27.63-11.57,7.71-7.92,11.57-17.46,11.57-28.6s-3.86-20.56-11.57-28.27c-7.28-7.92-16.5-11.89-27.63-11.89s-20.46,3.86-27.95,11.57c-7.5,7.93-11.25,17.46-11.25,28.6s3.75,20.67,11.25,28.6c7.5,7.71,16.81,11.57,27.95,11.57Z"/>
      <path class="st2" d="M754.47,455.78h-48.2v-239.37h48.2v11.25c13.28-10.28,28.6-15.42,45.95-15.42,22.49,0,41.34,8.35,56.55,25.06,15.21,16.92,22.81,37.81,22.81,62.65s-7.61,45.52-22.81,62.65c-15.21,16.71-34.06,25.06-56.55,25.06-16.92,0-32.24-5.14-45.95-15.42v83.54ZM792.39,259.78c-10.5,0-19.33,3.86-26.51,11.57-7.18,7.71-10.76,17.35-10.76,28.92s3.58,20.56,10.76,28.27c7.17,7.71,16.01,11.57,26.51,11.57s18.96-3.86,26.03-11.57c7.28-7.5,10.92-16.92,10.92-28.27s-3.59-21.21-10.76-28.92c-7.18-7.71-15.9-11.57-26.19-11.57Z"/>
      <path class="st1" d="M948.54,383.49h-48.2v-240.98h48.2v240.98Z"/>
      <path class="st1" d="M977.13,196.17c-5.57-5.57-8.35-12.64-8.35-21.21s2.78-15.63,8.35-21.21c5.99-5.57,13.17-8.35,21.53-8.35s15.63,2.79,21.21,8.35c5.78,5.36,8.68,12.43,8.68,21.21s-2.89,15.85-8.68,21.21c-5.57,5.57-12.64,8.35-21.21,8.35s-15.53-2.78-21.53-8.35ZM1022.76,383.49h-48.2v-167.08h48.2v167.08Z"/>
      <path class="st1" d="M1048.78,383.49v-167.08h48.2v17.03c11.14-14.14,26.35-21.21,45.63-21.21,17.99,0,33.09,6.11,45.3,18.31,12.42,12.21,18.64,27.42,18.64,45.63v107.32h-48.2v-94.46c0-9.21-2.89-16.87-8.68-22.97-5.78-6.1-13.07-9.16-21.85-9.16s-16.12,3.05-22.01,9.16c-5.89,6.11-8.84,13.77-8.84,22.97v94.46h-48.2Z"/>
      <path class="st1" d="M1232.57,383.49v-240.98h48.2v139.45l47.23-65.55h56.87l-57.83,80.65,63.94,86.43h-57.83l-52.37-71.65v71.65h-48.2Z"/>
    </g>
    <path class="st2" d="M1606.57,129.15h0c-88.04,0-159.41,71.37-159.41,159.41h0c0,88.11,71.44,159.55,159.55,159.55h9.64l-15.41-42.7h0c-61.34,0-111.08-49.74-111.08-111.08v-11.41c0-61.34,49.74-111.08,111.08-111.08h11.3c61.41,0,111.19,49.78,111.19,111.19v1.05l42.7,15.3v-10.71c0-88.11-71.44-159.55-159.55-159.55v.02Z"/>
    <path class="st2" d="M1668.45,263.63v.94c-6.23-1.77-12.59-2.58-18.95-2.58-22.7,0-44.23,11.3-57.54,30.11-12.13,17.29-15.89,38.35-10.36,58.48h0c-20.41,0-36.95-16.54-36.95-36.95h0c0-47.97,38.88-86.84,86.84-86.84h.11c20.34,0,36.82,16.5,36.82,36.82l.02.02Z"/>
    <path class="st1" d="M1671.34,497.22l-58.13-162.19c-8.68-24.23,14.73-47.66,38.96-38.96l162.19,58.13c6.77,2.43,11.98,6.86,15.43,12.26,9.37,14.77,2.95,34.55-12.81,42.15l-34.68,16.76c-17.61,8.5-31.8,22.75-40.23,40.38l-16.21,33.85c-8.33,17.37-31.07,23.03-45.69,10.51-3.82-3.28-6.93-7.6-8.81-12.87l-.02-.02Z"/>
  </g>
</svg>