<svg width="151" height="40" viewBox="0 0 151 40" fill="none" xmlns="http://www.w3.org/2000/svg">
<path d="M4 11.3003C4 8.64937 6.07363 6.50034 8.63158 6.50034H11.7002C18.9902 6.50034 24.9 12.5444 24.9 20.0002C24.9 27.456 18.9902 33.5001 11.7002 33.5001H8.63158C6.07363 33.5001 4 31.351 4 28.7001V11.3003Z" fill="#FF13F0"/>
<path fill-rule="evenodd" clip-rule="evenodd" d="M17.2086 33.4997C24.4947 33.4947 30.3997 27.4526 30.3997 19.9998C30.3997 12.547 24.4947 6.50476 17.2086 6.49991C22.3711 8.70628 25.9988 13.9197 25.9988 19.9998C25.9988 26.0797 22.3711 31.2932 17.2086 33.4997Z" fill="#FFA8EB"/>
<path d="M47.8397 28.168C46.6717 28.168 45.6157 27.968 44.6717 27.568C43.7437 27.168 43.0077 26.592 42.4637 25.84C41.9197 25.088 41.6397 24.2 41.6237 23.176H45.2237C45.2717 23.864 45.5117 24.408 45.9437 24.808C46.3917 25.208 46.9997 25.408 47.7677 25.408C48.5517 25.408 49.1677 25.224 49.6157 24.856C50.0637 24.472 50.2877 23.976 50.2877 23.368C50.2877 22.872 50.1357 22.464 49.8317 22.144C49.5277 21.824 49.1437 21.576 48.6797 21.4C48.2317 21.208 47.6077 21 46.8077 20.776C45.7197 20.456 44.8317 20.144 44.1437 19.84C43.4717 19.52 42.8877 19.048 42.3917 18.424C41.9117 17.784 41.6717 16.936 41.6717 15.88C41.6717 14.888 41.9197 14.024 42.4157 13.288C42.9117 12.552 43.6077 11.992 44.5037 11.608C45.3997 11.208 46.4237 11.008 47.5757 11.008C49.3037 11.008 50.7037 11.432 51.7757 12.28C52.8637 13.112 53.4637 14.28 53.5757 15.784H49.8797C49.8477 15.208 49.5997 14.736 49.1357 14.368C48.6877 13.984 48.0877 13.792 47.3357 13.792C46.6797 13.792 46.1517 13.96 45.7517 14.296C45.3677 14.632 45.1757 15.12 45.1757 15.76C45.1757 16.208 45.3197 16.584 45.6077 16.888C45.9117 17.176 46.2797 17.416 46.7117 17.608C47.1597 17.784 47.7837 17.992 48.5837 18.232C49.6717 18.552 50.5597 18.872 51.2477 19.192C51.9357 19.512 52.5277 19.992 53.0237 20.632C53.5197 21.272 53.7677 22.112 53.7677 23.152C53.7677 24.048 53.5357 24.88 53.0717 25.648C52.6077 26.416 51.9277 27.032 51.0317 27.496C50.1357 27.944 49.0717 28.168 47.8397 28.168ZM64.1687 14.512C65.1767 14.512 66.0727 14.736 66.8567 15.184C67.6407 15.616 68.2487 16.264 68.6807 17.128C69.1287 17.976 69.3527 19 69.3527 20.2V28H65.9927V20.656C65.9927 19.6 65.7287 18.792 65.2007 18.232C64.6727 17.656 63.9527 17.368 63.0407 17.368C62.1127 17.368 61.3767 17.656 60.8327 18.232C60.3047 18.792 60.0407 19.6 60.0407 20.656V28H56.6807V10.24H60.0407V16.36C60.4727 15.784 61.0487 15.336 61.7687 15.016C62.4887 14.68 63.2887 14.512 64.1687 14.512ZM78.4519 28.216C77.1719 28.216 76.0199 27.936 74.9959 27.376C73.9719 26.8 73.1639 25.992 72.5719 24.952C71.9959 23.912 71.7079 22.712 71.7079 21.352C71.7079 19.992 72.0039 18.792 72.5959 17.752C73.2039 16.712 74.0279 15.912 75.0679 15.352C76.1079 14.776 77.2679 14.488 78.5479 14.488C79.8279 14.488 80.9879 14.776 82.0279 15.352C83.0679 15.912 83.8839 16.712 84.4759 17.752C85.0839 18.792 85.3879 19.992 85.3879 21.352C85.3879 22.712 85.0759 23.912 84.4519 24.952C83.8439 25.992 83.0119 26.8 81.9559 27.376C80.9159 27.936 79.7479 28.216 78.4519 28.216ZM78.4519 25.288C79.0599 25.288 79.6279 25.144 80.1559 24.856C80.6999 24.552 81.1319 24.104 81.4519 23.512C81.7719 22.92 81.9319 22.2 81.9319 21.352C81.9319 20.088 81.5959 19.12 80.9239 18.448C80.2679 17.76 79.4599 17.416 78.4999 17.416C77.5399 17.416 76.7319 17.76 76.0759 18.448C75.4359 19.12 75.1159 20.088 75.1159 21.352C75.1159 22.616 75.4279 23.592 76.0519 24.28C76.6919 24.952 77.4919 25.288 78.4519 25.288ZM91.2126 16.624C91.6446 16.016 92.2366 15.512 92.9886 15.112C93.7566 14.696 94.6286 14.488 95.6046 14.488C96.7406 14.488 97.7646 14.768 98.6766 15.328C99.6046 15.888 100.333 16.688 100.861 17.728C101.405 18.752 101.677 19.944 101.677 21.304C101.677 22.664 101.405 23.872 100.861 24.928C100.333 25.968 99.6046 26.776 98.6766 27.352C97.7646 27.928 96.7406 28.216 95.6046 28.216C94.6286 28.216 93.7646 28.016 93.0126 27.616C92.2766 27.216 91.6766 26.712 91.2126 26.104V34.336H87.8526V14.704H91.2126V16.624ZM98.2446 21.304C98.2446 20.504 98.0766 19.816 97.7406 19.24C97.4206 18.648 96.9886 18.2 96.4446 17.896C95.9166 17.592 95.3406 17.44 94.7166 17.44C94.1086 17.44 93.5326 17.6 92.9886 17.92C92.4606 18.224 92.0286 18.672 91.6926 19.264C91.3726 19.856 91.2126 20.552 91.2126 21.352C91.2126 22.152 91.3726 22.848 91.6926 23.44C92.0286 24.032 92.4606 24.488 92.9886 24.808C93.5326 25.112 94.1086 25.264 94.7166 25.264C95.3406 25.264 95.9166 25.104 96.4446 24.784C96.9886 24.464 97.4206 24.008 97.7406 23.416C98.0766 22.824 98.2446 22.12 98.2446 21.304ZM107.478 10.24V28H104.118V10.24H107.478ZM112.502 13.12C111.91 13.12 111.414 12.936 111.014 12.568C110.63 12.184 110.438 11.712 110.438 11.152C110.438 10.592 110.63 10.128 111.014 9.76C111.414 9.376 111.91 9.184 112.502 9.184C113.094 9.184 113.582 9.376 113.966 9.76C114.366 10.128 114.566 10.592 114.566 11.152C114.566 11.712 114.366 12.184 113.966 12.568C113.582 12.936 113.094 13.12 112.502 13.12ZM114.158 14.704V28H110.798V14.704H114.158ZM124.846 14.512C126.43 14.512 127.71 15.016 128.686 16.024C129.662 17.016 130.15 18.408 130.15 20.2V28H126.79V20.656C126.79 19.6 126.526 18.792 125.998 18.232C125.47 17.656 124.75 17.368 123.838 17.368C122.91 17.368 122.174 17.656 121.63 18.232C121.102 18.792 120.838 19.6 120.838 20.656V28H117.478V14.704H120.838V16.36C121.286 15.784 121.854 15.336 122.542 15.016C123.246 14.68 124.014 14.512 124.846 14.512ZM141.217 28L136.705 22.336V28H133.345V10.24H136.705V20.344L141.169 14.704H145.537L139.681 21.376L145.585 28H141.217Z" fill="#242123"/>
</svg>
