<svg width="586" height="443" viewBox="0 0 586 443" fill="none" xmlns="http://www.w3.org/2000/svg">
<rect x="109.84" y="60.5" width="405" height="324" rx="19.5" fill="white"/>
<rect x="109.84" y="60.5" width="405" height="324" rx="19.5" stroke="#E5E5EA"/>
<path d="M143.612 102.112C142.577 102.112 141.623 101.872 140.748 101.392C139.884 100.901 139.196 100.224 138.684 99.36C138.183 98.4853 137.932 97.504 137.932 96.416C137.932 95.328 138.183 94.352 138.684 93.488C139.196 92.624 139.884 91.952 140.748 91.472C141.623 90.9813 142.577 90.736 143.612 90.736C144.657 90.736 145.612 90.9813 146.476 91.472C147.351 91.952 148.039 92.624 148.54 93.488C149.041 94.352 149.292 95.328 149.292 96.416C149.292 97.504 149.041 98.4853 148.54 99.36C148.039 100.224 147.351 100.901 146.476 101.392C145.612 101.872 144.657 102.112 143.612 102.112ZM143.612 100.528C144.348 100.528 145.004 100.363 145.58 100.032C146.156 99.6907 146.604 99.2107 146.924 98.592C147.255 97.9627 147.42 97.2373 147.42 96.416C147.42 95.5947 147.255 94.8747 146.924 94.256C146.604 93.6373 146.156 93.1627 145.58 92.832C145.004 92.5013 144.348 92.336 143.612 92.336C142.876 92.336 142.22 92.5013 141.644 92.832C141.068 93.1627 140.615 93.6373 140.284 94.256C139.964 94.8747 139.804 95.5947 139.804 96.416C139.804 97.2373 139.964 97.9627 140.284 98.592C140.615 99.2107 141.068 99.6907 141.644 100.032C142.22 100.363 142.876 100.528 143.612 100.528ZM142.236 89.76C141.969 89.76 141.74 89.6693 141.548 89.488C141.367 89.296 141.276 89.0667 141.276 88.8C141.276 88.5333 141.367 88.3093 141.548 88.128C141.74 87.936 141.969 87.84 142.236 87.84C142.503 87.84 142.727 87.936 142.908 88.128C143.1 88.3093 143.196 88.5333 143.196 88.8C143.196 89.0667 143.1 89.296 142.908 89.488C142.727 89.6693 142.503 89.76 142.236 89.76ZM144.988 89.76C144.721 89.76 144.492 89.6693 144.3 89.488C144.119 89.296 144.028 89.0667 144.028 88.8C144.028 88.5333 144.119 88.3093 144.3 88.128C144.492 87.936 144.721 87.84 144.988 87.84C145.255 87.84 145.479 87.936 145.66 88.128C145.852 88.3093 145.948 88.5333 145.948 88.8C145.948 89.0667 145.852 89.296 145.66 89.488C145.479 89.6693 145.255 89.76 144.988 89.76ZM150.479 97.552C150.479 96.6667 150.66 95.8827 151.023 95.2C151.396 94.5173 151.898 93.9893 152.527 93.616C153.167 93.232 153.876 93.04 154.655 93.04C155.231 93.04 155.796 93.168 156.351 93.424C156.916 93.6693 157.364 94 157.695 94.416V90.16H159.535V102H157.695V100.672C157.396 101.099 156.98 101.451 156.447 101.728C155.924 102.005 155.322 102.144 154.639 102.144C153.871 102.144 153.167 101.952 152.527 101.568C151.898 101.173 151.396 100.629 151.023 99.936C150.66 99.232 150.479 98.4373 150.479 97.552ZM157.695 97.584C157.695 96.976 157.567 96.448 157.311 96C157.066 95.552 156.74 95.2107 156.335 94.976C155.93 94.7413 155.492 94.624 155.023 94.624C154.554 94.624 154.116 94.7413 153.711 94.976C153.306 95.2 152.975 95.536 152.719 95.984C152.474 96.4213 152.351 96.944 152.351 97.552C152.351 98.16 152.474 98.6933 152.719 99.152C152.975 99.6107 153.306 99.9627 153.711 100.208C154.127 100.443 154.564 100.56 155.023 100.56C155.492 100.56 155.93 100.443 156.335 100.208C156.74 99.9733 157.066 99.632 157.311 99.184C157.567 98.7253 157.695 98.192 157.695 97.584ZM165.611 93.04C166.453 93.04 167.205 93.232 167.867 93.616C168.539 93.9893 169.061 94.5227 169.435 95.216C169.819 95.8987 170.011 96.6933 170.011 97.6C170.011 98.5067 169.824 99.3067 169.451 100C169.088 100.683 168.571 101.211 167.899 101.584C167.237 101.957 166.475 102.144 165.611 102.144C164.779 102.144 164.037 101.963 163.387 101.6C162.736 101.237 162.229 100.731 161.867 100.08C161.504 99.4187 161.323 98.6613 161.323 97.808C161.323 97.4773 161.344 97.1787 161.387 96.912H168.123C168.069 96.208 167.808 95.6427 167.339 95.216C166.869 94.7893 166.293 94.576 165.611 94.576C164.629 94.576 163.936 94.9867 163.531 95.808H161.563C161.829 94.9973 162.309 94.336 163.003 93.824C163.707 93.3013 164.576 93.04 165.611 93.04ZM165.691 100.608C166.32 100.608 166.859 100.411 167.307 100.016C167.755 99.6107 168.021 99.0667 168.107 98.384H163.227C163.237 99.056 163.477 99.5947 163.947 100C164.416 100.405 164.997 100.608 165.691 100.608ZM176.254 93.04C176.947 93.04 177.566 93.184 178.11 93.472C178.664 93.76 179.096 94.1867 179.406 94.752C179.715 95.3173 179.87 96 179.87 96.8V102H178.062V97.072C178.062 96.2827 177.864 95.68 177.47 95.264C177.075 94.8373 176.536 94.624 175.854 94.624C175.171 94.624 174.627 94.8373 174.222 95.264C173.827 95.68 173.63 96.2827 173.63 97.072V102H171.806V93.184H173.63V94.192C173.928 93.8293 174.307 93.5467 174.766 93.344C175.235 93.1413 175.731 93.04 176.254 93.04ZM183.124 92.016C182.794 92.016 182.516 91.904 182.292 91.68C182.068 91.456 181.956 91.1787 181.956 90.848C181.956 90.5173 182.068 90.24 182.292 90.016C182.516 89.792 182.794 89.68 183.124 89.68C183.444 89.68 183.716 89.792 183.94 90.016C184.164 90.24 184.276 90.5173 184.276 90.848C184.276 91.1787 184.164 91.456 183.94 91.68C183.716 91.904 183.444 92.016 183.124 92.016ZM184.02 93.184V102H182.196V93.184H184.02ZM192.991 99.536C192.991 100.229 192.735 100.816 192.223 101.296C191.711 101.765 191.018 102.037 190.143 102.112V102.768C190.762 102.768 191.263 102.912 191.647 103.2C192.031 103.499 192.223 103.915 192.223 104.448C192.223 104.981 192.031 105.403 191.647 105.712C191.263 106.032 190.778 106.192 190.191 106.192H188.079V105.04H189.823C190.122 105.04 190.346 104.997 190.495 104.912C190.644 104.827 190.719 104.672 190.719 104.448C190.719 104.224 190.644 104.069 190.495 103.984C190.346 103.899 190.122 103.856 189.823 103.856H188.943V102.096C188.079 101.989 187.37 101.675 186.815 101.152C186.26 100.629 185.967 100.011 185.935 99.296H187.823C187.855 99.6693 188.031 99.984 188.351 100.24C188.682 100.485 189.092 100.608 189.583 100.608C190.095 100.608 190.49 100.512 190.767 100.32C191.055 100.117 191.199 99.8613 191.199 99.552C191.199 99.2213 191.039 98.976 190.719 98.816C190.41 98.656 189.914 98.48 189.231 98.288C188.57 98.1067 188.031 97.9307 187.615 97.76C187.199 97.5893 186.836 97.328 186.527 96.976C186.228 96.624 186.079 96.16 186.079 95.584C186.079 95.1147 186.218 94.688 186.495 94.304C186.772 93.9093 187.167 93.6 187.679 93.376C188.202 93.152 188.799 93.04 189.471 93.04C190.474 93.04 191.279 93.296 191.887 93.808C192.506 94.3093 192.836 94.9973 192.879 95.872H191.055C191.023 95.4773 190.863 95.1627 190.575 94.928C190.287 94.6933 189.898 94.576 189.407 94.576C188.927 94.576 188.559 94.6667 188.303 94.848C188.047 95.0293 187.919 95.2693 187.919 95.568C187.919 95.8027 188.004 96 188.175 96.16C188.346 96.32 188.554 96.448 188.799 96.544C189.044 96.6293 189.407 96.7413 189.887 96.88C190.527 97.0507 191.05 97.2267 191.455 97.408C191.871 97.5787 192.228 97.8347 192.527 98.176C192.826 98.5173 192.98 98.9707 192.991 99.536ZM198.51 97.552C198.51 96.6667 198.691 95.8827 199.054 95.2C199.427 94.5173 199.929 93.9893 200.558 93.616C201.198 93.232 201.907 93.04 202.686 93.04C203.262 93.04 203.827 93.168 204.382 93.424C204.947 93.6693 205.395 94 205.726 94.416V90.16H207.566V102H205.726V100.672C205.427 101.099 205.011 101.451 204.478 101.728C203.955 102.005 203.353 102.144 202.67 102.144C201.902 102.144 201.198 101.952 200.558 101.568C199.929 101.173 199.427 100.629 199.054 99.936C198.691 99.232 198.51 98.4373 198.51 97.552ZM205.726 97.584C205.726 96.976 205.598 96.448 205.342 96C205.097 95.552 204.771 95.2107 204.366 94.976C203.961 94.7413 203.523 94.624 203.054 94.624C202.585 94.624 202.147 94.7413 201.742 94.976C201.337 95.2 201.006 95.536 200.75 95.984C200.505 96.4213 200.382 96.944 200.382 97.552C200.382 98.16 200.505 98.6933 200.75 99.152C201.006 99.6107 201.337 99.9627 201.742 100.208C202.158 100.443 202.595 100.56 203.054 100.56C203.523 100.56 203.961 100.443 204.366 100.208C204.771 99.9733 205.097 99.632 205.342 99.184C205.598 98.7253 205.726 98.192 205.726 97.584ZM218.042 97.376C218.042 97.7067 218.021 98.0053 217.978 98.272H211.242C211.295 98.976 211.557 99.5413 212.026 99.968C212.495 100.395 213.071 100.608 213.754 100.608C214.735 100.608 215.429 100.197 215.834 99.376H217.802C217.535 100.187 217.05 100.853 216.346 101.376C215.653 101.888 214.789 102.144 213.754 102.144C212.911 102.144 212.154 101.957 211.482 101.584C210.821 101.2 210.298 100.667 209.914 99.984C209.541 99.2907 209.354 98.4907 209.354 97.584C209.354 96.6773 209.535 95.8827 209.898 95.2C210.271 94.5067 210.789 93.9733 211.45 93.6C212.122 93.2267 212.89 93.04 213.754 93.04C214.586 93.04 215.327 93.2213 215.978 93.584C216.629 93.9467 217.135 94.4587 217.498 95.12C217.861 95.7707 218.042 96.5227 218.042 97.376ZM216.138 96.8C216.127 96.128 215.887 95.5893 215.418 95.184C214.949 94.7787 214.367 94.576 213.674 94.576C213.045 94.576 212.506 94.7787 212.058 95.184C211.61 95.5787 211.343 96.1173 211.258 96.8H216.138ZM221.965 94.672V99.552C221.965 99.8827 222.04 100.123 222.189 100.272C222.349 100.411 222.616 100.48 222.989 100.48H224.109V102H222.669C221.848 102 221.218 101.808 220.781 101.424C220.344 101.04 220.125 100.416 220.125 99.552V94.672H219.085V93.184H220.125V90.992H221.965V93.184H224.109V94.672H221.965ZM225.182 97.552C225.182 96.6667 225.363 95.8827 225.726 95.2C226.099 94.5173 226.601 93.9893 227.23 93.616C227.87 93.232 228.574 93.04 229.342 93.04C230.035 93.04 230.638 93.1787 231.15 93.456C231.673 93.7227 232.089 94.0587 232.398 94.464V93.184H234.238V102H232.398V100.688C232.089 101.104 231.667 101.451 231.134 101.728C230.601 102.005 229.993 102.144 229.31 102.144C228.553 102.144 227.859 101.952 227.23 101.568C226.601 101.173 226.099 100.629 225.726 99.936C225.363 99.232 225.182 98.4373 225.182 97.552ZM232.398 97.584C232.398 96.976 232.27 96.448 232.014 96C231.769 95.552 231.443 95.2107 231.038 94.976C230.633 94.7413 230.195 94.624 229.726 94.624C229.257 94.624 228.819 94.7413 228.414 94.976C228.009 95.2 227.678 95.536 227.422 95.984C227.177 96.4213 227.054 96.944 227.054 97.552C227.054 98.16 227.177 98.6933 227.422 99.152C227.678 99.6107 228.009 99.9627 228.414 100.208C228.83 100.443 229.267 100.56 229.726 100.56C230.195 100.56 230.633 100.443 231.038 100.208C231.443 99.9733 231.769 99.632 232.014 99.184C232.27 98.7253 232.398 98.192 232.398 97.584ZM238.458 90.16V102H236.634V90.16H238.458ZM242.677 90.16V102H240.853V90.16H242.677ZM244.463 97.552C244.463 96.6667 244.645 95.8827 245.007 95.2C245.381 94.5173 245.882 93.9893 246.511 93.616C247.151 93.232 247.855 93.04 248.623 93.04C249.317 93.04 249.919 93.1787 250.431 93.456C250.954 93.7227 251.37 94.0587 251.679 94.464V93.184H253.519V102H251.679V100.688C251.37 101.104 250.949 101.451 250.415 101.728C249.882 102.005 249.274 102.144 248.591 102.144C247.834 102.144 247.141 101.952 246.511 101.568C245.882 101.173 245.381 100.629 245.007 99.936C244.645 99.232 244.463 98.4373 244.463 97.552ZM251.679 97.584C251.679 96.976 251.551 96.448 251.295 96C251.05 95.552 250.725 95.2107 250.319 94.976C249.914 94.7413 249.477 94.624 249.007 94.624C248.538 94.624 248.101 94.7413 247.695 94.976C247.29 95.2 246.959 95.536 246.703 95.984C246.458 96.4213 246.335 96.944 246.335 97.552C246.335 98.16 246.458 98.6933 246.703 99.152C246.959 99.6107 247.29 99.9627 247.695 100.208C248.111 100.443 248.549 100.56 249.007 100.56C249.477 100.56 249.914 100.443 250.319 100.208C250.725 99.9733 251.05 99.632 251.295 99.184C251.551 98.7253 251.679 98.192 251.679 97.584ZM257.739 94.464C258.006 94.016 258.358 93.6693 258.795 93.424C259.243 93.168 259.771 93.04 260.379 93.04V94.928H259.915C259.2 94.928 258.656 95.1093 258.283 95.472C257.92 95.8347 257.739 96.464 257.739 97.36V102H255.915V93.184H257.739V94.464ZM263.88 93.184V102H262.056V93.184H263.88Z" fill="#242123"/>
<path d="M147.516 144.112L145.292 141.888C144.748 142.037 144.193 142.112 143.628 142.112C142.593 142.112 141.649 141.872 140.796 141.392C139.943 140.901 139.265 140.224 138.764 139.36C138.273 138.485 138.028 137.504 138.028 136.416C138.028 135.328 138.273 134.352 138.764 133.488C139.265 132.613 139.943 131.936 140.796 131.456C141.649 130.965 142.593 130.72 143.628 130.72C144.673 130.72 145.623 130.965 146.476 131.456C147.329 131.936 148.001 132.608 148.492 133.472C148.983 134.336 149.228 135.317 149.228 136.416C149.228 137.483 148.993 138.443 148.524 139.296C148.055 140.149 147.409 140.821 146.588 141.312L149.404 144.112H147.516ZM139.516 136.416C139.516 137.301 139.692 138.08 140.044 138.752C140.407 139.424 140.897 139.941 141.516 140.304C142.145 140.667 142.849 140.848 143.628 140.848C144.407 140.848 145.105 140.667 145.724 140.304C146.353 139.941 146.844 139.424 147.196 138.752C147.559 138.08 147.74 137.301 147.74 136.416C147.74 135.52 147.559 134.741 147.196 134.08C146.844 133.408 146.359 132.891 145.74 132.528C145.121 132.165 144.417 131.984 143.628 131.984C142.839 131.984 142.135 132.165 141.516 132.528C140.897 132.891 140.407 133.408 140.044 134.08C139.692 134.741 139.516 135.52 139.516 136.416ZM151.933 131.808C151.656 131.808 151.421 131.712 151.229 131.52C151.037 131.328 150.941 131.093 150.941 130.816C150.941 130.539 151.037 130.304 151.229 130.112C151.421 129.92 151.656 129.824 151.933 129.824C152.2 129.824 152.424 129.92 152.605 130.112C152.797 130.304 152.893 130.539 152.893 130.816C152.893 131.093 152.797 131.328 152.605 131.52C152.424 131.712 152.2 131.808 151.933 131.808ZM152.637 133.232V142H151.181V133.232H152.637ZM162.671 133.232L157.391 146.128H155.887L157.615 141.904L154.079 133.232H155.695L158.447 140.336L161.167 133.232H162.671ZM174.679 133.072C175.361 133.072 175.969 133.216 176.503 133.504C177.036 133.781 177.457 134.203 177.767 134.768C178.076 135.333 178.231 136.021 178.231 136.832V142H176.791V137.04C176.791 136.165 176.572 135.499 176.135 135.04C175.708 134.571 175.127 134.336 174.391 134.336C173.633 134.336 173.031 134.581 172.583 135.072C172.135 135.552 171.911 136.251 171.911 137.168V142H170.471V137.04C170.471 136.165 170.252 135.499 169.815 135.04C169.388 134.571 168.807 134.336 168.071 134.336C167.313 134.336 166.711 134.581 166.263 135.072C165.815 135.552 165.591 136.251 165.591 137.168V142H164.135V133.232H165.591V134.496C165.879 134.037 166.263 133.685 166.743 133.44C167.233 133.195 167.772 133.072 168.359 133.072C169.095 133.072 169.745 133.237 170.311 133.568C170.876 133.899 171.297 134.384 171.575 135.024C171.82 134.405 172.225 133.925 172.791 133.584C173.356 133.243 173.985 133.072 174.679 133.072ZM184.283 133.088C185.115 133.088 185.856 133.275 186.507 133.648C187.168 134.021 187.686 134.555 188.059 135.248C188.432 135.931 188.619 136.725 188.619 137.632C188.619 138.539 188.438 139.333 188.075 140.016C187.712 140.699 187.2 141.227 186.539 141.6C185.888 141.963 185.136 142.144 184.283 142.144C183.451 142.144 182.715 141.963 182.075 141.6C181.435 141.237 180.939 140.741 180.587 140.112C180.246 139.472 180.075 138.752 180.075 137.952C180.075 137.664 180.091 137.371 180.123 137.072H187.131C187.078 136.208 186.779 135.536 186.235 135.056C185.702 134.565 185.051 134.32 184.283 134.32C183.654 134.32 183.126 134.469 182.699 134.768C182.283 135.056 181.99 135.445 181.819 135.936H180.251C180.486 135.093 180.955 134.411 181.659 133.888C182.363 133.355 183.238 133.088 184.283 133.088ZM184.347 140.912C185.083 140.912 185.707 140.677 186.219 140.208C186.742 139.739 187.04 139.088 187.115 138.256H181.579C181.579 138.811 181.702 139.291 181.947 139.696C182.192 140.091 182.523 140.395 182.939 140.608C183.366 140.811 183.835 140.912 184.347 140.912ZM192.317 134.432V139.6C192.317 140.027 192.407 140.331 192.589 140.512C192.77 140.683 193.085 140.768 193.533 140.768H194.605V142H193.293C192.482 142 191.874 141.813 191.469 141.44C191.063 141.067 190.861 140.453 190.861 139.6V134.432H189.725V133.232H190.861V131.024H192.317V133.232H194.605V134.432H192.317Z" fill="#565355"/>
<path d="M427.06 132V130.336H430.388V142H428.548V132H427.06ZM433.902 139.52C434.926 138.635 435.731 137.909 436.318 137.344C436.915 136.768 437.411 136.171 437.806 135.552C438.2 134.933 438.398 134.315 438.398 133.696C438.398 133.056 438.243 132.555 437.934 132.192C437.635 131.829 437.16 131.648 436.51 131.648C435.88 131.648 435.39 131.851 435.038 132.256C434.696 132.651 434.515 133.184 434.494 133.856H432.734C432.766 132.64 433.128 131.712 433.822 131.072C434.526 130.421 435.416 130.096 436.494 130.096C437.656 130.096 438.563 130.416 439.214 131.056C439.875 131.696 440.206 132.549 440.206 133.616C440.206 134.384 440.008 135.125 439.614 135.84C439.23 136.544 438.766 137.179 438.222 137.744C437.688 138.299 437.006 138.944 436.174 139.68L435.454 140.32H440.526V141.84H432.75V140.512L433.902 139.52ZM442.128 136.016C442.128 134.171 442.437 132.731 443.056 131.696C443.685 130.651 444.763 130.128 446.288 130.128C447.813 130.128 448.885 130.651 449.504 131.696C450.133 132.731 450.448 134.171 450.448 136.016C450.448 137.883 450.133 139.344 449.504 140.4C448.885 141.445 447.813 141.968 446.288 141.968C444.763 141.968 443.685 141.445 443.056 140.4C442.437 139.344 442.128 137.883 442.128 136.016ZM448.656 136.016C448.656 135.152 448.597 134.421 448.48 133.824C448.373 133.227 448.149 132.741 447.808 132.368C447.467 131.984 446.96 131.792 446.288 131.792C445.616 131.792 445.109 131.984 444.768 132.368C444.427 132.741 444.197 133.227 444.08 133.824C443.973 134.421 443.92 135.152 443.92 136.016C443.92 136.912 443.973 137.664 444.08 138.272C444.187 138.88 444.411 139.371 444.752 139.744C445.104 140.117 445.616 140.304 446.288 140.304C446.96 140.304 447.467 140.117 447.808 139.744C448.16 139.371 448.389 138.88 448.496 138.272C448.603 137.664 448.656 136.912 448.656 136.016ZM463.478 139.728H458.822L458.022 142H456.118L460.102 130.864H462.214L466.198 142H464.278L463.478 139.728ZM462.966 138.24L461.158 133.072L459.334 138.24H462.966ZM469.691 140.416H474.859V142H467.531V140.576L472.683 132.464H467.531V130.88H474.859V132.304L469.691 140.416ZM485.989 142H484.165L478.677 133.696V142H476.853V130.864H478.677L484.165 139.152V130.864H485.989V142Z" fill="#565355"/>
<path d="M143.596 176.832C144.407 176.832 145.1 176.656 145.676 176.304C146.263 175.941 146.711 175.424 147.02 174.752H148.764C148.38 175.733 147.783 176.512 146.972 177.088C146.172 177.664 145.233 177.995 144.156 178.08V178.928C144.785 178.917 145.287 179.051 145.66 179.328C146.033 179.605 146.22 180 146.22 180.512C146.22 181.013 146.039 181.413 145.676 181.712C145.313 182.011 144.844 182.16 144.268 182.16H142.428V181.216H143.98C144.332 181.216 144.588 181.163 144.748 181.056C144.919 180.949 145.004 180.768 145.004 180.512C145.004 180.267 144.919 180.091 144.748 179.984C144.588 179.877 144.332 179.824 143.98 179.824H143.18V178.08C142.209 178.016 141.329 177.739 140.54 177.248C139.761 176.747 139.148 176.08 138.7 175.248C138.252 174.405 138.028 173.461 138.028 172.416C138.028 171.328 138.273 170.352 138.764 169.488C139.255 168.613 139.921 167.931 140.764 167.44C141.617 166.949 142.561 166.704 143.596 166.704C144.812 166.704 145.873 166.997 146.78 167.584C147.687 168.171 148.348 169.003 148.764 170.08H147.02C146.711 169.408 146.263 168.891 145.676 168.528C145.1 168.165 144.407 167.984 143.596 167.984C142.817 167.984 142.119 168.165 141.5 168.528C140.881 168.891 140.396 169.408 140.044 170.08C139.692 170.741 139.516 171.52 139.516 172.416C139.516 173.301 139.692 174.08 140.044 174.752C140.396 175.413 140.881 175.925 141.5 176.288C142.119 176.651 142.817 176.832 143.596 176.832ZM150.387 173.584C150.387 172.688 150.569 171.904 150.931 171.232C151.294 170.549 151.79 170.021 152.419 169.648C153.059 169.275 153.769 169.088 154.547 169.088C155.315 169.088 155.982 169.253 156.547 169.584C157.113 169.915 157.534 170.331 157.811 170.832V169.232H159.283V178H157.811V176.368C157.523 176.88 157.091 177.307 156.515 177.648C155.95 177.979 155.289 178.144 154.531 178.144C153.753 178.144 153.049 177.952 152.419 177.568C151.79 177.184 151.294 176.645 150.931 175.952C150.569 175.259 150.387 174.469 150.387 173.584ZM157.811 173.6C157.811 172.939 157.678 172.363 157.411 171.872C157.145 171.381 156.782 171.008 156.323 170.752C155.875 170.485 155.379 170.352 154.835 170.352C154.291 170.352 153.795 170.48 153.347 170.736C152.899 170.992 152.542 171.365 152.275 171.856C152.009 172.347 151.875 172.923 151.875 173.584C151.875 174.256 152.009 174.843 152.275 175.344C152.542 175.835 152.899 176.213 153.347 176.48C153.795 176.736 154.291 176.864 154.835 176.864C155.379 176.864 155.875 176.736 156.323 176.48C156.782 176.213 157.145 175.835 157.411 175.344C157.678 174.843 157.811 174.261 157.811 173.6ZM163.52 170.432V175.6C163.52 176.027 163.611 176.331 163.792 176.512C163.973 176.683 164.288 176.768 164.736 176.768H165.808V178H164.496C163.685 178 163.077 177.813 162.672 177.44C162.267 177.067 162.064 176.453 162.064 175.6V170.432H160.928V169.232H162.064V167.024H163.52V169.232H165.808V170.432H163.52ZM167.028 173.584C167.028 172.688 167.209 171.904 167.572 171.232C167.935 170.549 168.431 170.021 169.06 169.648C169.7 169.275 170.415 169.088 171.204 169.088C171.887 169.088 172.521 169.248 173.108 169.568C173.695 169.877 174.143 170.288 174.452 170.8V166.16H175.924V178H174.452V176.352C174.164 176.875 173.737 177.307 173.172 177.648C172.607 177.979 171.945 178.144 171.188 178.144C170.409 178.144 169.7 177.952 169.06 177.568C168.431 177.184 167.935 176.645 167.572 175.952C167.209 175.259 167.028 174.469 167.028 173.584ZM174.452 173.6C174.452 172.939 174.319 172.363 174.052 171.872C173.785 171.381 173.423 171.008 172.964 170.752C172.516 170.485 172.02 170.352 171.476 170.352C170.932 170.352 170.436 170.48 169.988 170.736C169.54 170.992 169.183 171.365 168.916 171.856C168.649 172.347 168.516 172.923 168.516 173.584C168.516 174.256 168.649 174.843 168.916 175.344C169.183 175.835 169.54 176.213 169.988 176.48C170.436 176.736 170.932 176.864 171.476 176.864C172.02 176.864 172.516 176.736 172.964 176.48C173.423 176.213 173.785 175.835 174.052 175.344C174.319 174.843 174.452 174.261 174.452 173.6ZM179.841 169.232V178H178.385V169.232H179.841ZM183.778 170.656C184.034 170.155 184.397 169.765 184.866 169.488C185.346 169.211 185.927 169.072 186.61 169.072V170.576H186.226C184.594 170.576 183.778 171.461 183.778 173.232V178H182.322V169.232H183.778V170.656ZM189.747 169.232V178H188.291V169.232H189.747ZM193.684 166.16V178H192.228V166.16H193.684ZM206.71 169.072C207.392 169.072 208 169.216 208.534 169.504C209.067 169.781 209.488 170.203 209.798 170.768C210.107 171.333 210.262 172.021 210.262 172.832V178H208.822V173.04C208.822 172.165 208.603 171.499 208.166 171.04C207.739 170.571 207.158 170.336 206.422 170.336C205.664 170.336 205.062 170.581 204.614 171.072C204.166 171.552 203.942 172.251 203.942 173.168V178H202.502V173.04C202.502 172.165 202.283 171.499 201.846 171.04C201.419 170.571 200.838 170.336 200.102 170.336C199.344 170.336 198.742 170.581 198.294 171.072C197.846 171.552 197.622 172.251 197.622 173.168V178H196.166V169.232H197.622V170.496C197.91 170.037 198.294 169.685 198.774 169.44C199.264 169.195 199.803 169.072 200.39 169.072C201.126 169.072 201.776 169.237 202.342 169.568C202.907 169.899 203.328 170.384 203.606 171.024C203.851 170.405 204.256 169.925 204.822 169.584C205.387 169.243 206.016 169.072 206.71 169.072ZM212.106 173.584C212.106 172.688 212.287 171.904 212.65 171.232C213.013 170.549 213.509 170.021 214.138 169.648C214.778 169.275 215.487 169.088 216.266 169.088C217.034 169.088 217.701 169.253 218.266 169.584C218.831 169.915 219.253 170.331 219.53 170.832V169.232H221.002V178H219.53V176.368C219.242 176.88 218.81 177.307 218.234 177.648C217.669 177.979 217.007 178.144 216.25 178.144C215.471 178.144 214.767 177.952 214.138 177.568C213.509 177.184 213.013 176.645 212.65 175.952C212.287 175.259 212.106 174.469 212.106 173.584ZM219.53 173.6C219.53 172.939 219.397 172.363 219.13 171.872C218.863 171.381 218.501 171.008 218.042 170.752C217.594 170.485 217.098 170.352 216.554 170.352C216.01 170.352 215.514 170.48 215.066 170.736C214.618 170.992 214.261 171.365 213.994 171.856C213.727 172.347 213.594 172.923 213.594 173.584C213.594 174.256 213.727 174.843 213.994 175.344C214.261 175.835 214.618 176.213 215.066 176.48C215.514 176.736 216.01 176.864 216.554 176.864C217.098 176.864 217.594 176.736 218.042 176.48C218.501 176.213 218.863 175.835 219.13 175.344C219.397 174.843 219.53 174.261 219.53 173.6Z" fill="#565355"/>
<path d="M444.308 175.52C445.332 174.635 446.137 173.909 446.724 173.344C447.321 172.768 447.817 172.171 448.212 171.552C448.607 170.933 448.804 170.315 448.804 169.696C448.804 169.056 448.649 168.555 448.34 168.192C448.041 167.829 447.567 167.648 446.916 167.648C446.287 167.648 445.796 167.851 445.444 168.256C445.103 168.651 444.921 169.184 444.9 169.856H443.14C443.172 168.64 443.535 167.712 444.228 167.072C444.932 166.421 445.823 166.096 446.9 166.096C448.063 166.096 448.969 166.416 449.62 167.056C450.281 167.696 450.612 168.549 450.612 169.616C450.612 170.384 450.415 171.125 450.02 171.84C449.636 172.544 449.172 173.179 448.628 173.744C448.095 174.299 447.412 174.944 446.58 175.68L445.86 176.32H450.932V177.84H443.156V176.512L444.308 175.52ZM463.635 175.728H458.979L458.179 178H456.275L460.259 166.864H462.371L466.355 178H464.435L463.635 175.728ZM463.123 174.24L461.315 169.072L459.491 174.24H463.123ZM469.847 176.416H475.015V178H467.687V176.576L472.839 168.464H467.687V166.88H475.015V168.304L469.847 176.416ZM486.145 178H484.321L478.833 169.696V178H477.009V166.864H478.833L484.321 175.152V166.864H486.145V178Z" fill="#565355"/>
<path d="M140.028 204.032V207.76H144.092V208.96H140.028V212.8H144.572V214H138.572V202.832H144.572V204.032H140.028ZM151.047 205.072C152.114 205.072 152.978 205.397 153.639 206.048C154.3 206.688 154.631 207.616 154.631 208.832V214H153.191V209.04C153.191 208.165 152.972 207.499 152.535 207.04C152.098 206.571 151.5 206.336 150.743 206.336C149.975 206.336 149.362 206.576 148.903 207.056C148.455 207.536 148.231 208.235 148.231 209.152V214H146.775V205.232H148.231V206.48C148.519 206.032 148.908 205.685 149.399 205.44C149.9 205.195 150.45 205.072 151.047 205.072ZM156.466 209.584C156.466 208.688 156.647 207.904 157.01 207.232C157.372 206.549 157.868 206.021 158.498 205.648C159.138 205.275 159.852 205.088 160.642 205.088C161.324 205.088 161.959 205.248 162.546 205.568C163.132 205.877 163.58 206.288 163.89 206.8V202.16H165.362V214H163.89V212.352C163.602 212.875 163.175 213.307 162.61 213.648C162.044 213.979 161.383 214.144 160.626 214.144C159.847 214.144 159.138 213.952 158.498 213.568C157.868 213.184 157.372 212.645 157.01 211.952C156.647 211.259 156.466 210.469 156.466 209.584ZM163.89 209.6C163.89 208.939 163.756 208.363 163.49 207.872C163.223 207.381 162.86 207.008 162.402 206.752C161.954 206.485 161.458 206.352 160.914 206.352C160.37 206.352 159.874 206.48 159.426 206.736C158.978 206.992 158.62 207.365 158.354 207.856C158.087 208.347 157.954 208.923 157.954 209.584C157.954 210.256 158.087 210.843 158.354 211.344C158.62 211.835 158.978 212.213 159.426 212.48C159.874 212.736 160.37 212.864 160.914 212.864C161.458 212.864 161.954 212.736 162.402 212.48C162.86 212.213 163.223 211.835 163.49 211.344C163.756 210.843 163.89 210.261 163.89 209.6ZM168.574 203.808C168.297 203.808 168.062 203.712 167.87 203.52C167.678 203.328 167.582 203.093 167.582 202.816C167.582 202.539 167.678 202.304 167.87 202.112C168.062 201.92 168.297 201.824 168.574 201.824C168.841 201.824 169.065 201.92 169.246 202.112C169.438 202.304 169.534 202.539 169.534 202.816C169.534 203.093 169.438 203.328 169.246 203.52C169.065 203.712 168.841 203.808 168.574 203.808ZM169.278 205.232V214H167.822V205.232H169.278ZM173.216 206.656C173.472 206.155 173.834 205.765 174.304 205.488C174.784 205.211 175.365 205.072 176.048 205.072V206.576H175.664C174.032 206.576 173.216 207.461 173.216 209.232V214H171.76V205.232H173.216V206.656ZM178.48 203.808C178.203 203.808 177.968 203.712 177.776 203.52C177.584 203.328 177.488 203.093 177.488 202.816C177.488 202.539 177.584 202.304 177.776 202.112C177.968 201.92 178.203 201.824 178.48 201.824C178.747 201.824 178.971 201.92 179.152 202.112C179.344 202.304 179.44 202.539 179.44 202.816C179.44 203.093 179.344 203.328 179.152 203.52C178.971 203.712 178.747 203.808 178.48 203.808ZM179.184 205.232V214H177.728V205.232H179.184ZM192.21 205.072C192.892 205.072 193.5 205.216 194.034 205.504C194.567 205.781 194.988 206.203 195.298 206.768C195.607 207.333 195.762 208.021 195.762 208.832V214H194.322V209.04C194.322 208.165 194.103 207.499 193.666 207.04C193.239 206.571 192.658 206.336 191.922 206.336C191.164 206.336 190.562 206.581 190.114 207.072C189.666 207.552 189.442 208.251 189.442 209.168V214H188.002V209.04C188.002 208.165 187.783 207.499 187.346 207.04C186.919 206.571 186.338 206.336 185.602 206.336C184.844 206.336 184.242 206.581 183.794 207.072C183.346 207.552 183.122 208.251 183.122 209.168V214H181.666V205.232H183.122V206.496C183.41 206.037 183.794 205.685 184.274 205.44C184.764 205.195 185.303 205.072 185.89 205.072C186.626 205.072 187.276 205.237 187.842 205.568C188.407 205.899 188.828 206.384 189.106 207.024C189.351 206.405 189.756 205.925 190.322 205.584C190.887 205.243 191.516 205.072 192.21 205.072Z" fill="#565355"/>
<path d="M433.308 211.52C434.332 210.635 435.137 209.909 435.724 209.344C436.321 208.768 436.817 208.171 437.212 207.552C437.607 206.933 437.804 206.315 437.804 205.696C437.804 205.056 437.649 204.555 437.34 204.192C437.041 203.829 436.567 203.648 435.916 203.648C435.287 203.648 434.796 203.851 434.444 204.256C434.103 204.651 433.921 205.184 433.9 205.856H432.14C432.172 204.64 432.535 203.712 433.228 203.072C433.932 202.421 434.823 202.096 435.9 202.096C437.063 202.096 437.969 202.416 438.62 203.056C439.281 203.696 439.612 204.549 439.612 205.616C439.612 206.384 439.415 207.125 439.02 207.84C438.636 208.544 438.172 209.179 437.628 209.744C437.095 210.299 436.412 210.944 435.58 211.68L434.86 212.32H439.932V213.84H432.156V212.512L433.308 211.52ZM441.534 208.016C441.534 206.171 441.844 204.731 442.462 203.696C443.092 202.651 444.169 202.128 445.694 202.128C447.22 202.128 448.292 202.651 448.91 203.696C449.54 204.731 449.854 206.171 449.854 208.016C449.854 209.883 449.54 211.344 448.91 212.4C448.292 213.445 447.22 213.968 445.694 213.968C444.169 213.968 443.092 213.445 442.462 212.4C441.844 211.344 441.534 209.883 441.534 208.016ZM448.062 208.016C448.062 207.152 448.004 206.421 447.886 205.824C447.78 205.227 447.556 204.741 447.214 204.368C446.873 203.984 446.366 203.792 445.694 203.792C445.022 203.792 444.516 203.984 444.174 204.368C443.833 204.741 443.604 205.227 443.486 205.824C443.38 206.421 443.326 207.152 443.326 208.016C443.326 208.912 443.38 209.664 443.486 210.272C443.593 210.88 443.817 211.371 444.158 211.744C444.51 212.117 445.022 212.304 445.694 212.304C446.366 212.304 446.873 212.117 447.214 211.744C447.566 211.371 447.796 210.88 447.902 210.272C448.009 209.664 448.062 208.912 448.062 208.016ZM462.885 211.728H458.229L457.429 214H455.525L459.509 202.864H461.621L465.605 214H463.685L462.885 211.728ZM462.373 210.24L460.565 205.072L458.741 210.24H462.373ZM469.097 212.416H474.265V214H466.937V212.576L472.089 204.464H466.937V202.88H474.265V204.304L469.097 212.416ZM485.395 214H483.571L478.083 205.696V214H476.259V202.864H478.083L483.571 211.152V202.864H485.395V214Z" fill="#565355"/>
<rect width="350" height="1" transform="translate(137.34 236)" fill="#E5E5EA"/>
<path d="M140.348 259.88V266.968C140.348 267.811 140.567 268.445 141.004 268.872C141.452 269.299 142.071 269.512 142.86 269.512C143.66 269.512 144.279 269.299 144.716 268.872C145.164 268.445 145.388 267.811 145.388 266.968V259.88H147.212V266.936C147.212 267.843 147.015 268.611 146.62 269.24C146.225 269.869 145.697 270.339 145.036 270.648C144.375 270.957 143.644 271.112 142.844 271.112C142.044 271.112 141.313 270.957 140.652 270.648C140.001 270.339 139.484 269.869 139.1 269.24C138.716 268.611 138.524 267.843 138.524 266.936V259.88H140.348ZM141.484 258.76C141.217 258.76 140.988 258.669 140.796 258.488C140.615 258.296 140.524 258.067 140.524 257.8C140.524 257.533 140.615 257.309 140.796 257.128C140.988 256.936 141.217 256.84 141.484 256.84C141.751 256.84 141.975 256.936 142.156 257.128C142.348 257.309 142.444 257.533 142.444 257.8C142.444 258.067 142.348 258.296 142.156 258.488C141.975 258.669 141.751 258.76 141.484 258.76ZM144.236 258.76C143.969 258.76 143.74 258.669 143.548 258.488C143.367 258.296 143.276 258.067 143.276 257.8C143.276 257.533 143.367 257.309 143.548 257.128C143.74 256.936 143.969 256.84 144.236 256.84C144.503 256.84 144.727 256.936 144.908 257.128C145.1 257.309 145.196 257.533 145.196 257.8C145.196 258.067 145.1 258.296 144.908 258.488C144.727 258.669 144.503 258.76 144.236 258.76ZM160.259 262.04C160.952 262.04 161.571 262.184 162.115 262.472C162.67 262.76 163.102 263.187 163.411 263.752C163.731 264.317 163.891 265 163.891 265.8V271H162.083V266.072C162.083 265.283 161.886 264.68 161.491 264.264C161.096 263.837 160.558 263.624 159.875 263.624C159.192 263.624 158.648 263.837 158.243 264.264C157.848 264.68 157.651 265.283 157.651 266.072V271H155.843V266.072C155.843 265.283 155.646 264.68 155.251 264.264C154.856 263.837 154.318 263.624 153.635 263.624C152.952 263.624 152.408 263.837 152.003 264.264C151.608 264.68 151.411 265.283 151.411 266.072V271H149.587V262.184H151.411V263.192C151.71 262.829 152.088 262.547 152.547 262.344C153.006 262.141 153.496 262.04 154.019 262.04C154.723 262.04 155.352 262.189 155.907 262.488C156.462 262.787 156.888 263.219 157.187 263.784C157.454 263.251 157.87 262.829 158.435 262.52C159 262.2 159.608 262.04 160.259 262.04ZM174.196 262.184V271H172.372V269.96C172.084 270.323 171.705 270.611 171.236 270.824C170.777 271.027 170.287 271.128 169.764 271.128C169.071 271.128 168.447 270.984 167.892 270.696C167.348 270.408 166.916 269.981 166.596 269.416C166.287 268.851 166.132 268.168 166.132 267.368V262.184H167.94V267.096C167.94 267.885 168.137 268.493 168.532 268.92C168.927 269.336 169.465 269.544 170.148 269.544C170.831 269.544 171.369 269.336 171.764 268.92C172.169 268.493 172.372 267.885 172.372 267.096V262.184H174.196ZM187.275 262.04C187.968 262.04 188.587 262.184 189.131 262.472C189.685 262.76 190.117 263.187 190.427 263.752C190.747 264.317 190.907 265 190.907 265.8V271H189.099V266.072C189.099 265.283 188.901 264.68 188.507 264.264C188.112 263.837 187.573 263.624 186.891 263.624C186.208 263.624 185.664 263.837 185.259 264.264C184.864 264.68 184.667 265.283 184.667 266.072V271H182.859V266.072C182.859 265.283 182.661 264.68 182.267 264.264C181.872 263.837 181.333 263.624 180.651 263.624C179.968 263.624 179.424 263.837 179.019 264.264C178.624 264.68 178.427 265.283 178.427 266.072V271H176.603V262.184H178.427V263.192C178.725 262.829 179.104 262.547 179.563 262.344C180.021 262.141 180.512 262.04 181.035 262.04C181.739 262.04 182.368 262.189 182.923 262.488C183.477 262.787 183.904 263.219 184.203 263.784C184.469 263.251 184.885 262.829 185.451 262.52C186.016 262.2 186.624 262.04 187.275 262.04ZM194.156 261.016C193.825 261.016 193.548 260.904 193.324 260.68C193.1 260.456 192.988 260.179 192.988 259.848C192.988 259.517 193.1 259.24 193.324 259.016C193.548 258.792 193.825 258.68 194.156 258.68C194.476 258.68 194.748 258.792 194.972 259.016C195.196 259.24 195.308 259.517 195.308 259.848C195.308 260.179 195.196 260.456 194.972 260.68C194.748 260.904 194.476 261.016 194.156 261.016ZM195.052 262.184V271H193.228V262.184H195.052ZM200.995 266.552C200.995 265.667 201.176 264.883 201.539 264.2C201.912 263.517 202.413 262.989 203.043 262.616C203.683 262.232 204.392 262.04 205.171 262.04C205.853 262.04 206.456 262.179 206.979 262.456C207.512 262.733 207.923 263.069 208.211 263.464V262.184H210.051V275.192H208.211V269.72C207.923 270.115 207.507 270.451 206.963 270.728C206.419 271.005 205.8 271.144 205.107 271.144C204.349 271.144 203.656 270.952 203.027 270.568C202.408 270.173 201.912 269.629 201.539 268.936C201.176 268.232 200.995 267.437 200.995 266.552ZM208.211 266.584C208.211 265.976 208.083 265.448 207.827 265C207.581 264.552 207.256 264.211 206.851 263.976C206.445 263.741 206.008 263.624 205.539 263.624C205.069 263.624 204.632 263.741 204.227 263.976C203.821 264.2 203.491 264.536 203.235 264.984C202.989 265.421 202.867 265.944 202.867 266.552C202.867 267.16 202.989 267.693 203.235 268.152C203.491 268.611 203.821 268.963 204.227 269.208C204.643 269.443 205.08 269.56 205.539 269.56C206.008 269.56 206.445 269.443 206.851 269.208C207.256 268.973 207.581 268.632 207.827 268.184C208.083 267.725 208.211 267.192 208.211 266.584ZM213.374 261.016C213.044 261.016 212.766 260.904 212.542 260.68C212.318 260.456 212.206 260.179 212.206 259.848C212.206 259.517 212.318 259.24 212.542 259.016C212.766 258.792 213.044 258.68 213.374 258.68C213.694 258.68 213.966 258.792 214.19 259.016C214.414 259.24 214.526 259.517 214.526 259.848C214.526 260.179 214.414 260.456 214.19 260.68C213.966 260.904 213.694 261.016 213.374 261.016ZM214.27 262.184V271H212.446V262.184H214.27ZM224.601 262.184L219.193 275.144H217.305L219.097 270.856L215.625 262.184H217.657L220.137 268.904L222.713 262.184H224.601ZM236.65 262.04C237.343 262.04 237.962 262.184 238.506 262.472C239.06 262.76 239.492 263.187 239.802 263.752C240.122 264.317 240.282 265 240.282 265.8V271H238.474V266.072C238.474 265.283 238.276 264.68 237.882 264.264C237.487 263.837 236.948 263.624 236.266 263.624C235.583 263.624 235.039 263.837 234.634 264.264C234.239 264.68 234.042 265.283 234.042 266.072V271H232.234V266.072C232.234 265.283 232.036 264.68 231.642 264.264C231.247 263.837 230.708 263.624 230.026 263.624C229.343 263.624 228.799 263.837 228.394 264.264C227.999 264.68 227.802 265.283 227.802 266.072V271H225.978V262.184H227.802V263.192C228.1 262.829 228.479 262.547 228.938 262.344C229.396 262.141 229.887 262.04 230.41 262.04C231.114 262.04 231.743 262.189 232.298 262.488C232.852 262.787 233.279 263.219 233.578 263.784C233.844 263.251 234.26 262.829 234.826 262.52C235.391 262.2 235.999 262.04 236.65 262.04ZM246.283 262.04C247.125 262.04 247.877 262.232 248.539 262.616C249.211 262.989 249.733 263.523 250.107 264.216C250.491 264.899 250.683 265.693 250.683 266.6C250.683 267.507 250.496 268.307 250.123 269C249.76 269.683 249.243 270.211 248.571 270.584C247.909 270.957 247.147 271.144 246.283 271.144C245.451 271.144 244.709 270.963 244.059 270.6C243.408 270.237 242.901 269.731 242.539 269.08C242.176 268.419 241.995 267.661 241.995 266.808C241.995 266.477 242.016 266.179 242.059 265.912H248.795C248.741 265.208 248.48 264.643 248.011 264.216C247.541 263.789 246.965 263.576 246.283 263.576C245.301 263.576 244.608 263.987 244.203 264.808H242.235C242.501 263.997 242.981 263.336 243.675 262.824C244.379 262.301 245.248 262.04 246.283 262.04ZM246.363 269.608C246.992 269.608 247.531 269.411 247.979 269.016C248.427 268.611 248.693 268.067 248.779 267.384H243.899C243.909 268.056 244.149 268.595 244.619 269C245.088 269.405 245.669 269.608 246.363 269.608ZM254.606 263.672V268.552C254.606 268.883 254.68 269.123 254.83 269.272C254.99 269.411 255.256 269.48 255.63 269.48H256.75V271H255.31C254.488 271 253.859 270.808 253.422 270.424C252.984 270.04 252.766 269.416 252.766 268.552V263.672H251.726V262.184H252.766V259.992H254.606V262.184H256.75V263.672H254.606Z" fill="#242123"/>
<path d="M427.06 261V259.336H430.388V271H428.548V261H427.06ZM432.894 265.016C432.894 263.171 433.203 261.731 433.822 260.696C434.451 259.651 435.528 259.128 437.054 259.128C438.579 259.128 439.651 259.651 440.27 260.696C440.899 261.731 441.214 263.171 441.214 265.016C441.214 266.883 440.899 268.344 440.27 269.4C439.651 270.445 438.579 270.968 437.054 270.968C435.528 270.968 434.451 270.445 433.822 269.4C433.203 268.344 432.894 266.883 432.894 265.016ZM439.422 265.016C439.422 264.152 439.363 263.421 439.246 262.824C439.139 262.227 438.915 261.741 438.574 261.368C438.232 260.984 437.726 260.792 437.054 260.792C436.382 260.792 435.875 260.984 435.534 261.368C435.192 261.741 434.963 262.227 434.846 262.824C434.739 263.421 434.686 264.152 434.686 265.016C434.686 265.912 434.739 266.664 434.846 267.272C434.952 267.88 435.176 268.371 435.518 268.744C435.87 269.117 436.382 269.304 437.054 269.304C437.726 269.304 438.232 269.117 438.574 268.744C438.926 268.371 439.155 267.88 439.262 267.272C439.368 266.664 439.422 265.912 439.422 265.016ZM444.152 268.52C445.176 267.635 445.981 266.909 446.568 266.344C447.165 265.768 447.661 265.171 448.056 264.552C448.45 263.933 448.648 263.315 448.648 262.696C448.648 262.056 448.493 261.555 448.184 261.192C447.885 260.829 447.41 260.648 446.76 260.648C446.13 260.648 445.64 260.851 445.288 261.256C444.946 261.651 444.765 262.184 444.744 262.856H442.984C443.016 261.64 443.378 260.712 444.072 260.072C444.776 259.421 445.666 259.096 446.744 259.096C447.906 259.096 448.813 259.416 449.464 260.056C450.125 260.696 450.456 261.549 450.456 262.616C450.456 263.384 450.258 264.125 449.864 264.84C449.48 265.544 449.016 266.179 448.472 266.744C447.938 267.299 447.256 267.944 446.424 268.68L445.704 269.32H450.776V270.84H443V269.512L444.152 268.52ZM463.478 268.728H458.822L458.022 271H456.118L460.102 259.864H462.214L466.198 271H464.278L463.478 268.728ZM462.966 267.24L461.158 262.072L459.334 267.24H462.966ZM469.691 269.416H474.859V271H467.531V269.576L472.683 261.464H467.531V259.88H474.859V261.304L469.691 269.416ZM485.989 271H484.165L478.677 262.696V271H476.853V259.864H478.677L484.165 268.152V259.864H485.989V271Z" fill="#242123"/>
<path d="M137.34 329C137.34 320.163 144.503 313 153.34 313H471.34C480.177 313 487.34 320.163 487.34 329V345C487.34 353.837 480.177 361 471.34 361H153.34C144.503 361 137.34 353.837 137.34 345V329Z" fill="#FF13F0"/>
<path d="M286.724 331.88V333.368H283.764V343H281.94V333.368H278.964V331.88H286.724ZM292.251 334.04C293.094 334.04 293.846 334.232 294.507 334.616C295.179 334.989 295.702 335.523 296.075 336.216C296.459 336.899 296.651 337.693 296.651 338.6C296.651 339.507 296.465 340.307 296.091 341C295.729 341.683 295.211 342.211 294.539 342.584C293.878 342.957 293.115 343.144 292.251 343.144C291.419 343.144 290.678 342.963 290.027 342.6C289.377 342.237 288.87 341.731 288.507 341.08C288.145 340.419 287.963 339.661 287.963 338.808C287.963 338.477 287.985 338.179 288.027 337.912H294.763C294.71 337.208 294.449 336.643 293.979 336.216C293.51 335.789 292.934 335.576 292.251 335.576C291.27 335.576 290.577 335.987 290.171 336.808H288.203C288.47 335.997 288.95 335.336 289.643 334.824C290.347 334.301 291.217 334.04 292.251 334.04ZM292.331 341.608C292.961 341.608 293.499 341.411 293.947 341.016C294.395 340.611 294.662 340.067 294.747 339.384H289.867C289.878 340.056 290.118 340.595 290.587 341C291.057 341.405 291.638 341.608 292.331 341.608ZM301.646 343.144C300.953 343.144 300.329 343.021 299.774 342.776C299.23 342.52 298.798 342.179 298.478 341.752C298.158 341.315 297.988 340.829 297.966 340.296H299.854C299.886 340.669 300.062 340.984 300.382 341.24C300.713 341.485 301.124 341.608 301.614 341.608C302.126 341.608 302.521 341.512 302.798 341.32C303.086 341.117 303.23 340.861 303.23 340.552C303.23 340.221 303.07 339.976 302.75 339.816C302.441 339.656 301.945 339.48 301.262 339.288C300.601 339.107 300.062 338.931 299.646 338.76C299.23 338.589 298.868 338.328 298.558 337.976C298.26 337.624 298.11 337.16 298.11 336.584C298.11 336.115 298.249 335.688 298.526 335.304C298.804 334.909 299.198 334.6 299.71 334.376C300.233 334.152 300.83 334.04 301.502 334.04C302.505 334.04 303.31 334.296 303.918 334.808C304.537 335.309 304.868 335.997 304.91 336.872H303.086C303.054 336.477 302.894 336.163 302.606 335.928C302.318 335.693 301.929 335.576 301.438 335.576C300.958 335.576 300.59 335.667 300.334 335.848C300.078 336.029 299.95 336.269 299.95 336.568C299.95 336.803 300.036 337 300.206 337.16C300.377 337.32 300.585 337.448 300.83 337.544C301.076 337.629 301.438 337.741 301.918 337.88C302.558 338.051 303.081 338.227 303.486 338.408C303.902 338.579 304.26 338.835 304.558 339.176C304.857 339.517 305.012 339.971 305.022 340.536C305.022 341.037 304.884 341.485 304.606 341.88C304.329 342.275 303.934 342.584 303.422 342.808C302.921 343.032 302.329 343.144 301.646 343.144ZM306.385 338.552C306.385 337.667 306.566 336.883 306.929 336.2C307.302 335.517 307.804 334.989 308.433 334.616C309.073 334.232 309.782 334.04 310.561 334.04C311.137 334.04 311.702 334.168 312.257 334.424C312.822 334.669 313.27 335 313.601 335.416V331.16H315.441V343H313.601V341.672C313.302 342.099 312.886 342.451 312.353 342.728C311.83 343.005 311.228 343.144 310.545 343.144C309.777 343.144 309.073 342.952 308.433 342.568C307.804 342.173 307.302 341.629 306.929 340.936C306.566 340.232 306.385 339.437 306.385 338.552ZM313.601 338.584C313.601 337.976 313.473 337.448 313.217 337C312.972 336.552 312.646 336.211 312.241 335.976C311.836 335.741 311.398 335.624 310.929 335.624C310.46 335.624 310.022 335.741 309.617 335.976C309.212 336.2 308.881 336.536 308.625 336.984C308.38 337.421 308.257 337.944 308.257 338.552C308.257 339.16 308.38 339.693 308.625 340.152C308.881 340.611 309.212 340.963 309.617 341.208C310.033 341.443 310.47 341.56 310.929 341.56C311.398 341.56 311.836 341.443 312.241 341.208C312.646 340.973 312.972 340.632 313.217 340.184C313.473 339.725 313.601 339.192 313.601 338.584ZM318.765 333.016C318.434 333.016 318.157 332.904 317.933 332.68C317.709 332.456 317.597 332.179 317.597 331.848C317.597 331.517 317.709 331.24 317.933 331.016C318.157 330.792 318.434 330.68 318.765 330.68C319.085 330.68 319.357 330.792 319.581 331.016C319.805 331.24 319.917 331.517 319.917 331.848C319.917 332.179 319.805 332.456 319.581 332.68C319.357 332.904 319.085 333.016 318.765 333.016ZM319.661 334.184V343H317.837V334.184H319.661ZM321.448 338.552C321.448 337.667 321.629 336.883 321.992 336.2C322.365 335.517 322.866 334.989 323.496 334.616C324.136 334.232 324.845 334.04 325.624 334.04C326.306 334.04 326.909 334.179 327.432 334.456C327.965 334.733 328.376 335.069 328.664 335.464V334.184H330.504V347.192H328.664V341.72C328.376 342.115 327.96 342.451 327.416 342.728C326.872 343.005 326.253 343.144 325.56 343.144C324.802 343.144 324.109 342.952 323.48 342.568C322.861 342.173 322.365 341.629 321.992 340.936C321.629 340.232 321.448 339.437 321.448 338.552ZM328.664 338.584C328.664 337.976 328.536 337.448 328.28 337C328.034 336.552 327.709 336.211 327.304 335.976C326.898 335.741 326.461 335.624 325.992 335.624C325.522 335.624 325.085 335.741 324.68 335.976C324.274 336.2 323.944 336.536 323.688 336.984C323.442 337.421 323.32 337.944 323.32 338.552C323.32 339.16 323.442 339.693 323.688 340.152C323.944 340.611 324.274 340.963 324.68 341.208C325.096 341.443 325.533 341.56 325.992 341.56C326.461 341.56 326.898 341.443 327.304 341.208C327.709 340.973 328.034 340.632 328.28 340.184C328.536 339.725 328.664 339.192 328.664 338.584ZM334.723 331.16V343H332.899V331.16H334.723ZM340.798 334.04C341.641 334.04 342.393 334.232 343.054 334.616C343.726 334.989 344.249 335.523 344.622 336.216C345.006 336.899 345.198 337.693 345.198 338.6C345.198 339.507 345.011 340.307 344.638 341C344.275 341.683 343.758 342.211 343.086 342.584C342.425 342.957 341.662 343.144 340.798 343.144C339.966 343.144 339.225 342.963 338.574 342.6C337.923 342.237 337.417 341.731 337.054 341.08C336.691 340.419 336.51 339.661 336.51 338.808C336.51 338.477 336.531 338.179 336.574 337.912H343.31C343.257 337.208 342.995 336.643 342.526 336.216C342.057 335.789 341.481 335.576 340.798 335.576C339.817 335.576 339.123 335.987 338.718 336.808H336.75C337.017 335.997 337.497 335.336 338.19 334.824C338.894 334.301 339.763 334.04 340.798 334.04ZM340.878 341.608C341.507 341.608 342.046 341.411 342.494 341.016C342.942 340.611 343.209 340.067 343.294 339.384H338.414C338.425 340.056 338.665 340.595 339.134 341C339.603 341.405 340.185 341.608 340.878 341.608Z" fill="white"/>
<rect x="20.34" y="36" width="312" height="48" rx="8" fill="#242123" fill-opacity="0.72"/>
<g clip-path="url(#clip0_41_4310)">
<path d="M37.14 56H59.54M37.14 64H59.54M47.6734 48C45.4271 51.5995 44.2363 55.7572 44.2363 60C44.2363 64.2428 45.4271 68.4005 47.6734 72M49.0067 48C51.2529 51.5995 52.4438 55.7572 52.4438 60C52.4438 64.2428 51.2529 68.4005 49.0067 72M36.34 60C36.34 61.5759 36.6504 63.1363 37.2535 64.5922C37.8565 66.0481 38.7404 67.371 39.8547 68.4853C40.969 69.5996 42.2919 70.4835 43.7478 71.0866C45.2037 71.6896 46.7642 72 48.34 72C49.9159 72 51.4763 71.6896 52.9322 71.0866C54.3881 70.4835 55.711 69.5996 56.8253 68.4853C57.9396 67.371 58.8235 66.0481 59.4266 64.5922C60.0296 63.1363 60.34 61.5759 60.34 60C60.34 56.8174 59.0757 53.7652 56.8253 51.5147C54.5749 49.2643 51.5226 48 48.34 48C45.1574 48 42.1052 49.2643 39.8547 51.5147C37.6043 53.7652 36.34 56.8174 36.34 60Z" stroke="white" stroke-width="1.5" stroke-linecap="round" stroke-linejoin="round"/>
</g>
<path d="M83.7003 57.184L80.9643 66H79.0443L77.2683 59.488L75.4923 66H73.5723L70.8203 57.184H72.6763L74.5163 64.272L76.3883 57.184H78.2923L80.0843 64.24L81.9083 57.184H83.7003ZM96.9035 57.184L94.1675 66H92.2475L90.4715 59.488L88.6955 66H86.7755L84.0235 57.184H85.8795L87.7195 64.272L89.5915 57.184H91.4955L93.2875 64.24L95.1115 57.184H96.9035ZM110.107 57.184L107.371 66H105.451L103.675 59.488L101.899 66H99.9786L97.2266 57.184H99.0826L100.923 64.272L102.795 57.184H104.699L106.491 64.24L108.315 57.184H110.107ZM112.206 66.112C111.875 66.112 111.598 66 111.374 65.776C111.15 65.552 111.038 65.2747 111.038 64.944C111.038 64.6133 111.15 64.336 111.374 64.112C111.598 63.888 111.875 63.776 112.206 63.776C112.526 63.776 112.798 63.888 113.022 64.112C113.246 64.336 113.358 64.6133 113.358 64.944C113.358 65.2747 113.246 65.552 113.022 65.776C112.798 66 112.526 66.112 112.206 66.112ZM118.529 66.144C117.836 66.144 117.212 66.0213 116.657 65.776C116.113 65.52 115.681 65.1787 115.361 64.752C115.041 64.3147 114.87 63.8293 114.849 63.296H116.737C116.769 63.6693 116.945 63.984 117.265 64.24C117.596 64.4853 118.006 64.608 118.497 64.608C119.009 64.608 119.404 64.512 119.681 64.32C119.969 64.1173 120.113 63.8613 120.113 63.552C120.113 63.2213 119.953 62.976 119.633 62.816C119.324 62.656 118.828 62.48 118.145 62.288C117.484 62.1067 116.945 61.9307 116.529 61.76C116.113 61.5893 115.75 61.328 115.441 60.976C115.142 60.624 114.993 60.16 114.993 59.584C114.993 59.1147 115.132 58.688 115.409 58.304C115.686 57.9093 116.081 57.6 116.593 57.376C117.116 57.152 117.713 57.04 118.385 57.04C119.388 57.04 120.193 57.296 120.801 57.808C121.42 58.3093 121.75 58.9973 121.793 59.872H119.969C119.937 59.4773 119.777 59.1627 119.489 58.928C119.201 58.6933 118.812 58.576 118.321 58.576C117.841 58.576 117.473 58.6667 117.217 58.848C116.961 59.0293 116.833 59.2693 116.833 59.568C116.833 59.8027 116.918 60 117.089 60.16C117.26 60.32 117.468 60.448 117.713 60.544C117.958 60.6293 118.321 60.7413 118.801 60.88C119.441 61.0507 119.964 61.2267 120.369 61.408C120.785 61.5787 121.142 61.8347 121.441 62.176C121.74 62.5173 121.894 62.9707 121.905 63.536C121.905 64.0373 121.766 64.4853 121.489 64.88C121.212 65.2747 120.817 65.584 120.305 65.808C119.804 66.032 119.212 66.144 118.529 66.144ZM128.436 57.04C129.108 57.04 129.705 57.184 130.228 57.472C130.761 57.76 131.177 58.1867 131.476 58.752C131.785 59.3173 131.94 60 131.94 60.8V66H130.132V61.072C130.132 60.2827 129.935 59.68 129.54 59.264C129.145 58.8373 128.607 58.624 127.924 58.624C127.241 58.624 126.697 58.8373 126.292 59.264C125.897 59.68 125.7 60.2827 125.7 61.072V66H123.876V54.16H125.7V58.208C126.009 57.8347 126.399 57.5467 126.868 57.344C127.348 57.1413 127.871 57.04 128.436 57.04ZM138.091 66.144C137.259 66.144 136.507 65.9573 135.835 65.584C135.163 65.2 134.635 64.6667 134.251 63.984C133.867 63.2907 133.675 62.4907 133.675 61.584C133.675 60.688 133.872 59.8933 134.267 59.2C134.661 58.5067 135.2 57.9733 135.883 57.6C136.565 57.2267 137.328 57.04 138.171 57.04C139.013 57.04 139.776 57.2267 140.459 57.6C141.141 57.9733 141.68 58.5067 142.075 59.2C142.469 59.8933 142.667 60.688 142.667 61.584C142.667 62.48 142.464 63.2747 142.059 63.968C141.653 64.6613 141.099 65.2 140.395 65.584C139.701 65.9573 138.933 66.144 138.091 66.144ZM138.091 64.56C138.56 64.56 138.997 64.448 139.403 64.224C139.819 64 140.155 63.664 140.411 63.216C140.667 62.768 140.795 62.224 140.795 61.584C140.795 60.944 140.672 60.4053 140.427 59.968C140.181 59.52 139.856 59.184 139.451 58.96C139.045 58.736 138.608 58.624 138.139 58.624C137.669 58.624 137.232 58.736 136.827 58.96C136.432 59.184 136.117 59.52 135.883 59.968C135.648 60.4053 135.531 60.944 135.531 61.584C135.531 62.5333 135.771 63.2693 136.251 63.792C136.741 64.304 137.355 64.56 138.091 64.56ZM146.294 58.48C146.603 58.0747 147.024 57.7333 147.558 57.456C148.091 57.1787 148.694 57.04 149.366 57.04C150.134 57.04 150.832 57.232 151.462 57.616C152.102 57.9893 152.603 58.5173 152.966 59.2C153.328 59.8827 153.51 60.6667 153.51 61.552C153.51 62.4373 153.328 63.232 152.966 63.936C152.603 64.6293 152.102 65.1733 151.462 65.568C150.832 65.952 150.134 66.144 149.366 66.144C148.694 66.144 148.096 66.0107 147.574 65.744C147.051 65.4667 146.624 65.1253 146.294 64.72V70.192H144.47V57.184H146.294V58.48ZM151.654 61.552C151.654 60.944 151.526 60.4213 151.27 59.984C151.024 59.536 150.694 59.2 150.278 58.976C149.872 58.7413 149.435 58.624 148.966 58.624C148.507 58.624 148.07 58.7413 147.654 58.976C147.248 59.2107 146.918 59.552 146.662 60C146.416 60.448 146.294 60.976 146.294 61.584C146.294 62.192 146.416 62.7253 146.662 63.184C146.918 63.632 147.248 63.9733 147.654 64.208C148.07 64.4427 148.507 64.56 148.966 64.56C149.435 64.56 149.872 64.4427 150.278 64.208C150.694 63.9627 151.024 63.6107 151.27 63.152C151.526 62.6933 151.654 62.16 151.654 61.552ZM157.137 54.16V66H155.313V54.16H157.137ZM160.46 56.016C160.13 56.016 159.852 55.904 159.628 55.68C159.404 55.456 159.292 55.1787 159.292 54.848C159.292 54.5173 159.404 54.24 159.628 54.016C159.852 53.792 160.13 53.68 160.46 53.68C160.78 53.68 161.052 53.792 161.276 54.016C161.5 54.24 161.612 54.5173 161.612 54.848C161.612 55.1787 161.5 55.456 161.276 55.68C161.052 55.904 160.78 56.016 160.46 56.016ZM161.356 57.184V66H159.532V57.184H161.356ZM168.199 57.04C168.892 57.04 169.511 57.184 170.055 57.472C170.61 57.76 171.042 58.1867 171.351 58.752C171.66 59.3173 171.815 60 171.815 60.8V66H170.007V61.072C170.007 60.2827 169.81 59.68 169.415 59.264C169.02 58.8373 168.482 58.624 167.799 58.624C167.116 58.624 166.572 58.8373 166.167 59.264C165.772 59.68 165.575 60.2827 165.575 61.072V66H163.751V57.184H165.575V58.192C165.874 57.8293 166.252 57.5467 166.711 57.344C167.18 57.1413 167.676 57.04 168.199 57.04ZM177.63 61.6L181.694 66H179.23L175.966 62.208V66H174.142V54.16H175.966V61.04L179.166 57.184H181.694L177.63 61.6ZM188.921 50.896L184.569 68.8H182.777L187.113 50.896H188.921ZM199.3 61.376C199.3 61.7067 199.278 62.0053 199.236 62.272H192.5C192.553 62.976 192.814 63.5413 193.284 63.968C193.753 64.3947 194.329 64.608 195.012 64.608C195.993 64.608 196.686 64.1973 197.092 63.376H199.06C198.793 64.1867 198.308 64.8533 197.604 65.376C196.91 65.888 196.046 66.144 195.012 66.144C194.169 66.144 193.412 65.9573 192.74 65.584C192.078 65.2 191.556 64.6667 191.172 63.984C190.798 63.2907 190.612 62.4907 190.612 61.584C190.612 60.6773 190.793 59.8827 191.156 59.2C191.529 58.5067 192.046 57.9733 192.708 57.6C193.38 57.2267 194.148 57.04 195.012 57.04C195.844 57.04 196.585 57.2213 197.236 57.584C197.886 57.9467 198.393 58.4587 198.756 59.12C199.118 59.7707 199.3 60.5227 199.3 61.376ZM197.396 60.8C197.385 60.128 197.145 59.5893 196.676 59.184C196.206 58.7787 195.625 58.576 194.932 58.576C194.302 58.576 193.764 58.7787 193.316 59.184C192.868 59.5787 192.601 60.1173 192.516 60.8H197.396ZM207.863 59.44V60.976H201.287V59.44H207.863ZM209.846 61.584C209.846 60.6773 210.027 59.8827 210.39 59.2C210.763 58.5067 211.275 57.9733 211.926 57.6C212.577 57.2267 213.323 57.04 214.166 57.04C215.233 57.04 216.113 57.296 216.806 57.808C217.51 58.3093 217.985 59.0293 218.23 59.968H216.262C216.102 59.5307 215.846 59.1893 215.494 58.944C215.142 58.6987 214.699 58.576 214.166 58.576C213.419 58.576 212.822 58.8427 212.374 59.376C211.937 59.8987 211.718 60.6347 211.718 61.584C211.718 62.5333 211.937 63.2747 212.374 63.808C212.822 64.3413 213.419 64.608 214.166 64.608C215.222 64.608 215.921 64.144 216.262 63.216H218.23C217.974 64.112 217.494 64.8267 216.79 65.36C216.086 65.8827 215.211 66.144 214.166 66.144C213.323 66.144 212.577 65.9573 211.926 65.584C211.275 65.2 210.763 64.6667 210.39 63.984C210.027 63.2907 209.846 62.4907 209.846 61.584ZM223.872 66.144C223.04 66.144 222.288 65.9573 221.616 65.584C220.944 65.2 220.416 64.6667 220.032 63.984C219.648 63.2907 219.456 62.4907 219.456 61.584C219.456 60.688 219.653 59.8933 220.048 59.2C220.443 58.5067 220.981 57.9733 221.664 57.6C222.347 57.2267 223.109 57.04 223.952 57.04C224.795 57.04 225.557 57.2267 226.24 57.6C226.923 57.9733 227.461 58.5067 227.856 59.2C228.251 59.8933 228.448 60.688 228.448 61.584C228.448 62.48 228.245 63.2747 227.84 63.968C227.435 64.6613 226.88 65.2 226.176 65.584C225.483 65.9573 224.715 66.144 223.872 66.144ZM223.872 64.56C224.341 64.56 224.779 64.448 225.184 64.224C225.6 64 225.936 63.664 226.192 63.216C226.448 62.768 226.576 62.224 226.576 61.584C226.576 60.944 226.453 60.4053 226.208 59.968C225.963 59.52 225.637 59.184 225.232 58.96C224.827 58.736 224.389 58.624 223.92 58.624C223.451 58.624 223.013 58.736 222.608 58.96C222.213 59.184 221.899 59.52 221.664 59.968C221.429 60.4053 221.312 60.944 221.312 61.584C221.312 62.5333 221.552 63.2693 222.032 63.792C222.523 64.304 223.136 64.56 223.872 64.56ZM240.923 57.04C241.616 57.04 242.235 57.184 242.779 57.472C243.334 57.76 243.766 58.1867 244.075 58.752C244.395 59.3173 244.555 60 244.555 60.8V66H242.747V61.072C242.747 60.2827 242.55 59.68 242.155 59.264C241.76 58.8373 241.222 58.624 240.539 58.624C239.856 58.624 239.312 58.8373 238.907 59.264C238.512 59.68 238.315 60.2827 238.315 61.072V66H236.507V61.072C236.507 60.2827 236.31 59.68 235.915 59.264C235.52 58.8373 234.982 58.624 234.299 58.624C233.616 58.624 233.072 58.8373 232.667 59.264C232.272 59.68 232.075 60.2827 232.075 61.072V66H230.251V57.184H232.075V58.192C232.374 57.8293 232.752 57.5467 233.211 57.344C233.67 57.1413 234.16 57.04 234.683 57.04C235.387 57.04 236.016 57.1893 236.571 57.488C237.126 57.7867 237.552 58.2187 237.851 58.784C238.118 58.2507 238.534 57.8293 239.099 57.52C239.664 57.2 240.272 57.04 240.923 57.04ZM257.548 57.04C258.241 57.04 258.86 57.184 259.404 57.472C259.959 57.76 260.391 58.1867 260.7 58.752C261.02 59.3173 261.18 60 261.18 60.8V66H259.372V61.072C259.372 60.2827 259.175 59.68 258.78 59.264C258.385 58.8373 257.847 58.624 257.164 58.624C256.481 58.624 255.937 58.8373 255.532 59.264C255.137 59.68 254.94 60.2827 254.94 61.072V66H253.132V61.072C253.132 60.2827 252.935 59.68 252.54 59.264C252.145 58.8373 251.607 58.624 250.924 58.624C250.241 58.624 249.697 58.8373 249.292 59.264C248.897 59.68 248.7 60.2827 248.7 61.072V66H246.876V57.184H248.7V58.192C248.999 57.8293 249.377 57.5467 249.836 57.344C250.295 57.1413 250.785 57.04 251.308 57.04C252.012 57.04 252.641 57.1893 253.196 57.488C253.751 57.7867 254.177 58.2187 254.476 58.784C254.743 58.2507 255.159 57.8293 255.724 57.52C256.289 57.2 256.897 57.04 257.548 57.04ZM271.581 61.376C271.581 61.7067 271.56 62.0053 271.517 62.272H264.781C264.834 62.976 265.096 63.5413 265.565 63.968C266.034 64.3947 266.61 64.608 267.293 64.608C268.274 64.608 268.968 64.1973 269.373 63.376H271.341C271.074 64.1867 270.589 64.8533 269.885 65.376C269.192 65.888 268.328 66.144 267.293 66.144C266.45 66.144 265.693 65.9573 265.021 65.584C264.36 65.2 263.837 64.6667 263.453 63.984C263.08 63.2907 262.893 62.4907 262.893 61.584C262.893 60.6773 263.074 59.8827 263.437 59.2C263.81 58.5067 264.328 57.9733 264.989 57.6C265.661 57.2267 266.429 57.04 267.293 57.04C268.125 57.04 268.866 57.2213 269.517 57.584C270.168 57.9467 270.674 58.4587 271.037 59.12C271.4 59.7707 271.581 60.5227 271.581 61.376ZM269.677 60.8C269.666 60.128 269.426 59.5893 268.957 59.184C268.488 58.7787 267.906 58.576 267.213 58.576C266.584 58.576 266.045 58.7787 265.597 59.184C265.149 59.5787 264.882 60.1173 264.797 60.8H269.677ZM275.2 58.464C275.467 58.016 275.819 57.6693 276.256 57.424C276.704 57.168 277.232 57.04 277.84 57.04V58.928H277.376C276.661 58.928 276.117 59.1093 275.744 59.472C275.381 59.8347 275.2 60.464 275.2 61.36V66H273.376V57.184H275.2V58.464ZM278.909 61.584C278.909 60.6773 279.09 59.8827 279.453 59.2C279.826 58.5067 280.338 57.9733 280.989 57.6C281.639 57.2267 282.386 57.04 283.229 57.04C284.295 57.04 285.175 57.296 285.869 57.808C286.573 58.3093 287.047 59.0293 287.293 59.968H285.325C285.165 59.5307 284.909 59.1893 284.557 58.944C284.205 58.6987 283.762 58.576 283.229 58.576C282.482 58.576 281.885 58.8427 281.437 59.376C280.999 59.8987 280.781 60.6347 280.781 61.584C280.781 62.5333 280.999 63.2747 281.437 63.808C281.885 64.3413 282.482 64.608 283.229 64.608C284.285 64.608 284.983 64.144 285.325 63.216H287.293C287.037 64.112 286.557 64.8267 285.853 65.36C285.149 65.8827 284.274 66.144 283.229 66.144C282.386 66.144 281.639 65.9573 280.989 65.584C280.338 65.2 279.826 64.6667 279.453 63.984C279.09 63.2907 278.909 62.4907 278.909 61.584ZM297.19 61.376C297.19 61.7067 297.169 62.0053 297.126 62.272H290.39C290.444 62.976 290.705 63.5413 291.174 63.968C291.644 64.3947 292.22 64.608 292.902 64.608C293.884 64.608 294.577 64.1973 294.982 63.376H296.95C296.684 64.1867 296.198 64.8533 295.494 65.376C294.801 65.888 293.937 66.144 292.902 66.144C292.06 66.144 291.302 65.9573 290.63 65.584C289.969 65.2 289.446 64.6667 289.062 63.984C288.689 63.2907 288.502 62.4907 288.502 61.584C288.502 60.6773 288.684 59.8827 289.046 59.2C289.42 58.5067 289.937 57.9733 290.598 57.6C291.27 57.2267 292.038 57.04 292.902 57.04C293.734 57.04 294.476 57.2213 295.126 57.584C295.777 57.9467 296.284 58.4587 296.646 59.12C297.009 59.7707 297.19 60.5227 297.19 61.376ZM295.286 60.8C295.276 60.128 295.036 59.5893 294.566 59.184C294.097 58.7787 293.516 58.576 292.822 58.576C292.193 58.576 291.654 58.7787 291.206 59.184C290.758 59.5787 290.492 60.1173 290.406 60.8H295.286ZM299.721 66.112C299.391 66.112 299.113 66 298.889 65.776C298.665 65.552 298.553 65.2747 298.553 64.944C298.553 64.6133 298.665 64.336 298.889 64.112C299.113 63.888 299.391 63.776 299.721 63.776C300.041 63.776 300.313 63.888 300.537 64.112C300.761 64.336 300.873 64.6133 300.873 64.944C300.873 65.2747 300.761 65.552 300.537 65.776C300.313 66 300.041 66.112 299.721 66.112ZM302.237 61.552C302.237 60.6667 302.418 59.8827 302.781 59.2C303.154 58.5173 303.655 57.9893 304.285 57.616C304.925 57.232 305.629 57.04 306.397 57.04C307.09 57.04 307.693 57.1787 308.205 57.456C308.727 57.7227 309.143 58.0587 309.453 58.464V57.184H311.293V66H309.453V64.688C309.143 65.104 308.722 65.4507 308.189 65.728C307.655 66.0053 307.047 66.144 306.365 66.144C305.607 66.144 304.914 65.952 304.285 65.568C303.655 65.1733 303.154 64.6293 302.781 63.936C302.418 63.232 302.237 62.4373 302.237 61.552ZM309.453 61.584C309.453 60.976 309.325 60.448 309.069 60C308.823 59.552 308.498 59.2107 308.093 58.976C307.687 58.7413 307.25 58.624 306.781 58.624C306.311 58.624 305.874 58.7413 305.469 58.976C305.063 59.2 304.733 59.536 304.477 59.984C304.231 60.4213 304.109 60.944 304.109 61.552C304.109 62.16 304.231 62.6933 304.477 63.152C304.733 63.6107 305.063 63.9627 305.469 64.208C305.885 64.4427 306.322 64.56 306.781 64.56C307.25 64.56 307.687 64.4427 308.093 64.208C308.498 63.9733 308.823 63.632 309.069 63.184C309.325 62.7253 309.453 62.192 309.453 61.584ZM315.304 64.512H319.304V66H313.192V64.512L317.208 58.672H313.192V57.184H319.304V58.672L315.304 64.512Z" fill="white"/>
<path d="M524.436 403.949C524.051 404.667 522.964 404.581 522.617 403.805L507.239 369.422C506.886 368.632 507.618 367.85 508.445 368.134L548.022 381.724C548.922 382.033 549.004 383.255 548.147 383.583L532.389 389.606C532.178 389.687 532.006 389.837 531.901 390.033L524.436 403.949Z" fill="#FF13F0" stroke="#FFA8EB" stroke-width="4" stroke-linecap="square"/>
<defs>
<clipPath id="clip0_41_4310">
<rect width="32" height="32" fill="white" transform="translate(32.34 44)"/>
</clipPath>
</defs>
</svg>
