<svg width="21" height="20" viewBox="0 0 21 20" fill="none" xmlns="http://www.w3.org/2000/svg">
<path d="M4.66667 14.1667C4.66667 14.6088 4.84226 15.0327 5.15482 15.3453C5.46738 15.6578 5.89131 15.8334 6.33333 15.8334C6.77536 15.8334 7.19928 15.6578 7.51184 15.3453C7.8244 15.0327 8 14.6088 8 14.1667M4.66667 14.1667C4.66667 13.7247 4.84226 13.3008 5.15482 12.9882C5.46738 12.6757 5.89131 12.5001 6.33333 12.5001C6.77536 12.5001 7.19928 12.6757 7.51184 12.9882C7.8244 13.3008 8 13.7247 8 14.1667M4.66667 14.1667H3V5.00008C3 4.77907 3.0878 4.56711 3.24408 4.41083C3.40036 4.25455 3.61232 4.16675 3.83333 4.16675H11.3333V14.1667M8 14.1667H13M13 14.1667C13 14.6088 13.1756 15.0327 13.4882 15.3453C13.8007 15.6578 14.2246 15.8334 14.6667 15.8334C15.1087 15.8334 15.5326 15.6578 15.8452 15.3453C16.1577 15.0327 16.3333 14.6088 16.3333 14.1667M13 14.1667C13 13.7247 13.1756 13.3008 13.4882 12.9882C13.8007 12.6757 14.2246 12.5001 14.6667 12.5001C15.1087 12.5001 15.5326 12.6757 15.8452 12.9882C16.1577 13.3008 16.3333 13.7247 16.3333 14.1667M16.3333 14.1667H18V9.16675M18 9.16675H11.3333M18 9.16675L15.5 5.00008H11.3333" stroke="#F68E1F" stroke-width="1.5" stroke-linecap="round" stroke-linejoin="round"/>
</svg>
