<svg width="112" height="112" viewBox="0 0 112 112" fill="none" xmlns="http://www.w3.org/2000/svg">
<rect x="1" y="1" width="110" height="110" rx="55" fill="#003932"/>
<rect x="1" y="1" width="110" height="110" rx="55" stroke="white" stroke-width="2"/>
<path d="M37.7798 36.1525C35.369 36.6591 33.5586 38.5727 33.0708 41.1336C32.9676 41.687 32.9395 43.0285 32.9395 47.7281V53.6191L33.6711 53.2908C34.0651 53.1125 34.7218 52.7655 35.1251 52.5309L35.8474 52.0901V47.1278C35.8474 41.7621 35.8662 41.4807 36.3633 40.627C36.6354 40.1674 37.3014 39.5389 37.7892 39.295C38.7179 38.8166 38.8586 38.8072 43.6426 38.8072C47.7232 38.8072 48.1641 38.7885 48.6706 38.6384C49.2522 38.4508 49.6274 38.2444 50.0683 37.8692C50.3591 37.6159 51.7005 36.115 51.7005 36.04C51.7005 36.0118 48.7175 35.9931 45.0685 36.0024C39.609 36.0118 38.3145 36.04 37.7798 36.1525Z" fill="white"/>
<path d="M55.9127 37.4846C55.6688 37.6534 55.1623 38.2069 54.6558 38.8635C54.1867 39.4639 53.1642 40.7678 52.3763 41.7433C51.5883 42.7283 50.9598 43.5538 50.9692 43.5913C50.988 43.6288 51.3257 43.9384 51.7196 44.2855C52.1136 44.6232 52.4701 44.989 52.4982 45.0922C52.592 45.383 52.4607 45.8239 52.2356 45.9833C51.8228 46.2741 51.4758 46.1709 50.6784 45.5143C50.2657 45.1766 49.8904 44.9139 49.8529 44.9139C49.8154 44.9233 49.534 45.1954 49.2244 45.5237L48.6804 46.1147L49.0368 46.4242C49.8435 47.109 50.0124 47.3154 50.0124 47.6155C50.0124 48.1596 49.3088 48.6286 48.8586 48.3847C48.746 48.3285 48.3802 48.047 48.0519 47.7656L47.4421 47.2497L46.9168 47.7469L46.3821 48.2347L46.9262 48.7694C47.2264 49.0601 47.4984 49.4072 47.5265 49.5198C47.6204 49.8856 47.4234 50.2421 47.0388 50.4016C46.6166 50.5798 46.4384 50.5141 45.7349 49.9138C45.4628 49.6793 45.2002 49.501 45.1533 49.5198C45.1064 49.5292 44.8062 49.7918 44.4873 50.0826L43.8963 50.6173L44.3747 51.077C44.9281 51.621 44.9938 51.9493 44.6186 52.3527C44.2527 52.7467 43.8025 52.6904 43.1646 52.1839L42.6487 51.7711L42.2735 52.0713C39.1779 54.5947 36.223 55.9642 32.0205 56.8178C31.2513 56.9679 30.4727 57.1555 30.2945 57.24C29.4503 57.587 29 58.2718 29 59.2099C29 61.1892 31.2326 62.615 35.8947 63.6187C37.6301 63.994 39.2529 64.1534 41.4761 64.1628C44.1589 64.1816 46.1007 63.9189 49.6841 63.0559C53.5019 62.1366 56.2504 61.086 61.7662 58.4407C68.3138 55.3076 69.4676 54.8104 71.5126 54.2476C73.2386 53.7692 73.8952 53.6941 75.5931 53.7504C77.1972 53.7973 77.8257 53.9474 78.9326 54.5384C79.5517 54.8761 80.471 55.786 80.7993 56.4051C81.0995 56.9679 81.3434 57.8309 81.3434 58.3656C81.3434 59.0317 81.4841 59.0223 81.6529 58.3375C81.9062 57.2963 82 56.4614 82 55.1763C82 52.015 81.2027 48.9663 79.3265 45.0453C77.9101 42.081 77.7131 41.5182 77.4411 39.6515C77.2816 38.4977 77.0846 38.0005 76.6906 37.6909C76.1465 37.2688 75.2742 37.3626 74.7019 37.8973C74.5331 38.0662 74.1485 38.5727 73.8577 39.0417C71.6814 42.5313 69.9179 43.5632 66.1094 43.5725C63.4453 43.5819 61.3441 42.9159 59.9276 41.6214C59.1772 40.9272 58.7832 40.2143 58.5487 39.0699C58.2297 37.5784 57.9108 37.2125 56.8883 37.2125C56.4287 37.2125 56.2598 37.2594 55.9127 37.4846ZM54.8996 46.4148C55.0028 46.4617 56.3161 47.4842 57.8264 48.6755C59.3366 49.8575 61.2878 51.3959 62.1602 52.0901C63.0419 52.7842 63.8581 53.4971 63.98 53.6754C64.2802 54.1163 64.2239 54.7823 63.8581 55.1012C63.586 55.3357 63.0701 55.4577 62.7324 55.3732C62.6104 55.3451 61.8788 54.8198 61.1096 54.2101C59.0927 52.606 56.3067 50.4016 55.1717 49.5292C53.774 48.441 53.4738 48.1127 53.4175 47.6062C53.3331 46.7713 54.2242 46.049 54.8996 46.4148ZM51.1568 49.6699C51.2975 49.7543 51.9073 50.2327 52.517 50.7299C54.1398 52.0432 57.7607 54.923 58.3986 55.4108C59.149 55.9736 59.4117 56.3488 59.4117 56.8085C59.4023 57.2869 59.271 57.5308 58.8958 57.7559C58.5018 57.9998 58.0327 57.9904 57.6763 57.7371C57.5074 57.6246 56.5788 56.9023 55.5938 56.1237C51.3726 52.803 49.7216 51.4334 49.5809 51.1614C49.215 50.4672 49.7779 49.501 50.5471 49.501C50.7441 49.501 51.0161 49.5761 51.1568 49.6699ZM47.4515 52.8499C47.6954 53.0375 48.5584 53.7223 49.3558 54.3789C50.1531 55.0262 51.185 55.8517 51.6446 56.2081C54.2524 58.2437 54.637 58.6658 54.4306 59.2849C54.168 60.0541 53.2862 60.4293 52.7046 60.0072C51.7384 59.3037 45.9694 54.6322 45.8005 54.4164C45.3221 53.8067 45.7161 52.7748 46.4947 52.5685C46.8793 52.4747 47.0106 52.5122 47.4515 52.8499Z" fill="white"/>
<path d="M72.6472 56.9585C70.8649 57.2775 68.6136 58.1405 64.458 60.0823C58.0793 63.0559 54.3552 64.3785 49.074 65.5323C45.8095 66.2453 43.1736 66.4235 39.5058 66.1984C37.7329 66.0858 36.1101 65.8419 34.7874 65.4948C33.2584 65.1008 33.4835 65.2603 35.3127 65.8794C41.0724 67.8212 45.7345 67.8869 53.2952 66.1421C58.023 65.0446 63.0041 63.3279 69.5329 60.5419C70.4428 60.1479 71.334 59.8008 71.5216 59.7727C72.1407 59.6508 72.9005 60.298 72.9005 60.9546C72.9005 61.2923 72.5253 61.8833 72.1219 62.1741C71.3903 62.7182 68.9138 63.7407 66.7281 64.4067C66.231 64.5568 65.1241 64.8945 64.2704 65.1571C62.7226 65.6262 59.7959 66.4141 56.0625 67.3709C50.0777 68.9093 47.301 69.369 43.3987 69.4534C40.7159 69.5097 38.9242 69.369 37.095 68.9562C36.0069 68.7217 34.3653 68.1401 33.4179 67.6617L32.9395 67.4178V69.6035C32.9395 72.0706 33.0333 72.6146 33.6711 73.8435C34.1495 74.7815 35.3033 75.9072 36.232 76.3575C37.6016 77.0329 36.4572 76.9954 55.9218 76.9672C72.4127 76.9391 73.4446 76.9297 73.9793 76.7702C76.1649 76.123 77.5064 74.8566 78.2662 72.7554C78.4726 72.1738 78.4819 72.0143 78.5288 68.4966C78.557 66.4798 78.5664 64.8194 78.557 64.8007C78.5476 64.7819 78.2193 65.0446 77.8347 65.3823C76.3056 66.7143 74.8423 67.5116 72.3564 68.3653C71.5403 68.6373 68.2947 69.4065 67.2722 69.566C66.2497 69.7161 65.9308 69.7723 65.4899 69.8568C65.2554 69.8943 64.261 70.0631 63.2761 70.2226C62.2911 70.3821 61.2593 70.5603 60.9779 70.6072C60.6964 70.6635 59.9085 70.8136 59.2143 70.9449C57.7979 71.2076 55.115 71.7985 52.2164 72.4927C45.1341 74.1906 45.2186 74.1812 42.4138 74.2375C41.2037 74.2656 40.2375 74.2656 40.2656 74.2281C40.2938 74.2 40.6502 74.1155 41.063 74.0311C42.3575 73.7872 44.121 73.2619 48.9802 71.6672C55.8467 69.4253 57.5727 68.9469 62.9572 67.7462C67.0283 66.8456 68.4166 66.4985 69.9456 65.9826C73.9324 64.6318 75.9492 63.2247 76.9529 61.086C77.6658 59.5569 77.4126 58.0654 76.3056 57.3431C75.5458 56.846 74.1106 56.6959 72.6472 56.9585Z" fill="white"/>
</svg>
